<?xml version="1.0" encoding="utf-8"?>
<!-- Generator: Adobe Illustrator 16.0.3, SVG Export Plug-In . SVG Version: 6.00 Build 0)  -->
<!DOCTYPE svg PUBLIC "-//W3C//DTD SVG 1.1//EN" "http://www.w3.org/Graphics/SVG/1.1/DTD/svg11.dtd">
<svg version="1.1" id="Capa_1" xmlns="http://www.w3.org/2000/svg" xmlns:xlink="http://www.w3.org/1999/xlink" x="0px" y="0px"
	 width="841.89px" height="595.28px" viewBox="0 0 841.89 595.28" enable-background="new 0 0 841.89 595.28" xml:space="preserve">
<g id="Guìas" display="none">
	<rect x="420.774" display="inline" fill="#D4CD13" width="1" height="595.28"/>
	<line display="inline" fill="none" stroke="#D4CD13" stroke-miterlimit="10" x1="841.89" y1="296.91" x2="0" y2="296.91"/>
	<line display="inline" fill="none" stroke="#D4CD13" stroke-miterlimit="10" x1="841.89" y1="317.554" x2="0" y2="317.554"/>
	<line display="inline" fill="none" stroke="#D4CD13" stroke-miterlimit="10" x1="841.89" y1="276.267" x2="0" y2="276.267"/>
	<line display="inline" fill="none" stroke="#D4CD13" stroke-miterlimit="10" x1="841.89" y1="296.91" x2="0" y2="296.91"/>
	<line display="inline" fill="none" stroke="#D4CD13" stroke-miterlimit="10" x1="841.89" y1="255.819" x2="0" y2="255.819"/>
	<line display="inline" fill="none" stroke="#D4CD13" stroke-miterlimit="10" x1="841.89" y1="276.463" x2="0" y2="276.463"/>
	<line display="inline" fill="none" stroke="#D4CD13" stroke-miterlimit="10" x1="841.89" y1="235.176" x2="0" y2="235.176"/>
	<line display="inline" fill="none" stroke="#D4CD13" stroke-miterlimit="10" x1="841.89" y1="255.819" x2="0" y2="255.819"/>
	<line display="inline" fill="none" stroke="#D4CD13" stroke-miterlimit="10" x1="841.89" y1="338.197" x2="0" y2="338.197"/>
	<line display="inline" fill="none" stroke="#D4CD13" stroke-miterlimit="10" x1="841.89" y1="317.554" x2="0" y2="317.554"/>
	<line display="inline" fill="none" stroke="#D4CD13" stroke-miterlimit="10" x1="841.89" y1="358.841" x2="0" y2="358.841"/>
	<line display="inline" fill="none" stroke="#D4CD13" stroke-miterlimit="10" x1="841.89" y1="338.197" x2="0" y2="338.197"/>
	<line display="inline" fill="none" stroke="#D4CD13" stroke-miterlimit="10" x1="219.101" y1="0" x2="219.101" y2="595.28"/>
	<line display="inline" fill="none" stroke="#D4CD13" stroke-miterlimit="10" x1="623.447" y1="0" x2="623.447" y2="595.28"/>
	<rect x="219.417" y="2.5" display="inline" fill="#D4CD13" width="201.528" height="1"/>
	<rect x="421.616" y="2.5" display="inline" fill="#D4CD13" width="201.502" height="1"/>
	<line display="inline" fill="none" stroke="#D4CD13" stroke-miterlimit="10" x1="320.188" y1="2.5" x2="320.188" y2="594.78"/>
	<line display="inline" fill="none" stroke="#D4CD13" stroke-miterlimit="10" x1="268.667" y1="2.5" x2="268.667" y2="594.78"/>
	<line display="inline" fill="none" stroke="#D4CD13" stroke-miterlimit="10" x1="573.246" y1="2.5" x2="573.246" y2="594.78"/>
	<line display="inline" fill="none" stroke="#D4CD13" stroke-miterlimit="10" x1="522.367" y1="2.5" x2="522.367" y2="594.78"/>
</g>
<image overflow="visible" width="374" height="177" xlink:href="44BA1BD6.jpg"  transform="matrix(1 0 0 1 -7771 -7893.7197)">
</image>
<g>
	<g id="Muertos">
		<path fill="#FFFFFF" d="M175.183,80.364c4.122,0,6.252,2.132,6.252,6.253v86.98c0,4.121-2.131,6.252-6.252,6.252h-21.746
			c-4.119,0-6.253-2.132-6.253-6.252v-40.08l-7.531,13.501c-1.707,2.845-4.122,4.265-7.393,4.265h-15.774
			c-3.269,0-5.826-1.42-7.391-4.265l-7.39-13.358v39.937c0,4.121-2.132,6.252-6.253,6.252H73.85c-4.121,0-6.255-2.132-6.255-6.252
			v-86.98c0-4.121,2.134-6.253,6.255-6.253h22.883c3.267,0,5.825,1.422,7.389,4.406l20.465,36.952l20.75-36.952
			c1.563-2.984,4.123-4.406,7.39-4.406H175.183z"/>
		<path fill="#FFFFFF" d="M198.333,142.471V86.617c0-4.121,2.132-6.253,6.252-6.253h21.604c4.12,0,6.253,2.132,6.253,6.253v55.143
			c0,10.66,3.125,15.633,10.515,15.633c7.535,0,10.945-4.974,10.945-15.633V86.617c0-4.121,2.13-6.253,6.253-6.253h21.603
			c4.122,0,6.252,2.132,6.252,6.253v55.854c0,28.426-19.187,39.084-44.91,39.084C218.515,181.555,198.333,170.897,198.333,142.471z"
			/>
		<path fill="#FFFFFF" d="M305.056,86.617c0-4.121,2.134-6.253,6.254-6.253h67.081c4.123,0,6.253,2.132,6.253,6.253v11.371
			c0,4.122-2.13,6.252-6.253,6.252h-39.226v13.502h33.543c4.121,0,6.252,2.131,6.252,6.252v11.37c0,4.121-2.132,6.253-6.252,6.253
			h-33.543v14.353h40.505c4.122,0,6.253,2.135,6.253,6.255v11.371c0,4.121-2.131,6.252-6.253,6.252h-68.36
			c-4.12,0-6.254-2.132-6.254-6.252V86.617z"/>
		<path fill="#FFFFFF" d="M485.821,116.747c0,10.803-5.539,19.329-14.78,24.446l19.764,31.125c2.695,4.405,0.845,7.532-4.123,7.532
			h-22.318c-3.267,0-5.687-1.422-7.391-4.266l-16.911-28.28h-7.25v26.293c0,4.121-2.126,6.252-6.248,6.252h-21.607
			c-4.119,0-6.253-2.132-6.253-6.252v-86.98c0-4.121,2.134-6.253,6.253-6.253h39.084c12.505,0,22.601,2.7,30.277,8.243
			c7.667,5.401,11.504,12.791,11.504,22.315V116.747z M451.857,111.631c0-4.548-3.552-7.391-9.378-7.391h-9.668v19.329h9.668
			c5.826,0,9.378-2.985,9.378-7.534V111.631z"/>
		<path fill="#FFFFFF" d="M521.777,104.24h-22.743c-4.123,0-6.259-2.131-6.259-6.252V86.617c0-4.121,2.136-6.253,6.259-6.253h79.589
			c4.121,0,6.256,2.132,6.256,6.253v11.371c0,4.122-2.135,6.252-6.256,6.252h-22.737v69.357c0,4.121-2.135,6.252-6.258,6.252
			h-21.601c-4.124,0-6.25-2.132-6.25-6.252V104.24z"/>
		<path fill="#FFFFFF" d="M584.87,142.615v-25.016c0-22.739,13.924-38.941,46.328-38.941c32.409,0,46.193,16.202,46.193,38.941
			v25.016c0,22.881-13.784,38.94-46.193,38.94C598.794,181.555,584.87,165.636,584.87,142.615z M618.978,139.771
			c0,12.649,3.126,17.909,12.079,17.909c9.095,0,12.229-4.975,12.229-17.909v-19.327c0-12.935-3.134-17.909-12.229-17.909
			c-8.953,0-12.079,5.401-12.079,17.909V139.771z"/>
		<path fill="#FFFFFF" d="M711.063,134.087c-15.917-6.823-21.887-14.072-21.887-27.289c0-18.192,15.914-28.141,41.639-28.141
			c12.229,0,24.736,3.269,37.527,9.949c3.551,1.85,4.399,5.117,2.269,8.671l-5.964,9.948c-1.991,3.411-4.839,4.122-8.673,2.132
			c-9.099-4.976-17.624-7.532-25.723-7.532c-4.55,0-6.97,2.273-6.97,5.257c0,2.844,2.277,5.117,6.688,6.964l23.592,9.948
			c16.059,6.823,22.734,15.065,22.734,28.283c0,18.619-15.627,29.276-43.49,29.276c-14.064,0-27.991-3.695-41.497-11.084
			c-3.552-1.848-4.552-5.116-2.417-8.528l5.684-10.233c1.991-3.552,4.83-4.405,8.669-2.273c10.801,5.969,20.609,8.953,29.278,8.953
			c6.256,0,9.668-2.558,9.668-6.68c0-2.986-2.278-5.258-7.536-7.533L711.063,134.087z"/>
	</g>
	<g id="de_hambre">
		<g>
			<g>
				<path fill="#FFFFFF" d="M214.811,400.881c-14.952,16.966-35.255-5.178-44.782-16.314c-5.391-7.056-8.016-10.703-13.107-18.237
					c-1.985-2.938-1.91-5.24,0.18-6.692c14.693-10.209,29.386-20.419,44.081-30.626c2.089-1.451,3.983-0.945,5.594,1.438
					c4.574,6.768,6.94,10.03,11.811,16.321c9.538,11.791,19.024,29.555,6.58,42.825
					C221.025,394.109,218.954,396.366,214.811,400.881z M207.437,372.621c5.191-4.774,5.6-8.929,0.345-15.682
					c-0.45-0.578-0.675-0.869-1.123-1.451c-8.186,6.85-16.375,13.694-24.563,20.542c0.499,0.649,0.748,0.975,1.25,1.619
					c5.37,6.899,10.269,7.681,15.396,2.966C202.219,377.417,203.959,375.819,207.437,372.621z"/>
				<path fill="#FFFFFF" d="M244.455,381.439c1.677-1.95,3.532-1.997,5.467-0.188c10.515,9.429,21.208,18.385,32.916,26.32
					c2.103,1.425,2.529,3.302,1.229,5.553c-1.435,2.484-2.153,3.725-3.588,6.209c-1.3,2.251-3.133,2.668-5.354,1.163
					c-8.455-5.728-12.599-8.818-20.678-15.45c-1.992,2.738-2.988,4.106-4.979,6.845c7.114,5.84,10.751,8.591,18.151,13.751
					c2.274,1.586,2.772,3.531,1.444,5.764c-1.466,2.464-2.198,3.697-3.664,6.161c-1.329,2.233-3.264,2.557-5.655,0.89
					c-7.781-5.425-11.605-8.317-19.085-14.458c-2.118,2.911-3.176,4.366-5.294,7.277c7.654,6.285,15.604,12.21,23.819,17.741
					c2.479,1.669,3.105,3.667,1.811,5.923c-1.428,2.489-2.142,3.734-3.57,6.224c-1.294,2.257-3.32,2.553-5.917,0.805
					c-14.58-10.194-28.191-21.071-41.392-32.998c-2.387-2.231-2.736-4.429-1.058-6.38
					C220.859,408.875,232.656,395.156,244.455,381.439z"/>
				<path fill="#FFFFFF" d="M308.054,427.104c1.072-2.385,2.765-3.026,4.982-1.931c4.646,2.296,6.987,3.379,11.706,5.415
					c2.25,0.972,2.96,2.725,2.067,5.191c-2.489,6.873-3.734,10.307-6.224,17.18c4.62,1.912,6.945,2.813,11.62,4.497
					c2.201-6.984,3.3-10.475,5.5-17.459c0.79-2.507,2.379-3.373,4.672-2.585c4.777,1.641,7.181,2.396,12.008,3.781
					c2.317,0.665,3.208,2.311,2.601,4.875c-4.266,18.042-8.533,36.084-12.801,54.125c-0.607,2.565-2.404,3.5-5.261,2.681
					c-5.952-1.708-8.916-2.641-14.805-4.664c-2.828-0.972-3.875-2.804-3.084-5.312c2.637-8.368,3.957-12.553,6.593-20.92
					c-4.916-1.771-7.361-2.714-12.22-4.725c-2.983,8.234-4.476,12.352-7.459,20.586c-0.894,2.468-2.8,3.154-5.575,1.957
					c-5.818-2.51-8.706-3.846-14.434-6.676c-2.733-1.351-3.583-3.314-2.51-5.7C292.972,460.649,300.513,443.876,308.054,427.104z"/>
				<path fill="#FFFFFF" d="M396.403,449.311c1.88,0.192,3.282,1.14,4.235,2.867c3.101,5.311,4.732,7.941,8.154,13.145
					c3.016,4.527,5.128,8.554,6.259,11.992c1.141,3.467,1.791,7.972,1.721,13.535c-0.099,7.809-0.152,11.713-0.25,19.521
					c-0.033,2.646-1.564,4.002-4.495,3.915c-6.104-0.181-9.155-0.351-15.248-0.848c-2.925-0.238-4.323-1.756-4.101-4.392
					c0.368-4.361,0.551-6.542,0.919-10.903c-5.895-0.57-8.837-0.933-14.708-1.813c-0.567,4.337-0.851,6.504-1.418,10.841
					c-0.343,2.621-2.026,3.761-4.934,3.28c-6.093-1.007-9.131-1.591-15.185-2.918c-2.887-0.633-4.103-2.33-3.572-4.915
					c1.566-7.627,2.35-11.441,3.916-19.068c1.116-5.435,2.653-9.647,4.479-12.775s4.769-6.474,8.684-10.143
					c4.489-4.222,6.659-6.382,10.848-10.791c1.298-1.449,2.869-2.029,4.661-1.77C390.375,448.653,392.383,448.899,396.403,449.311z
					 M389.188,468.678c-1.052,1.192-1.583,1.786-2.655,2.968c-2.262,2.458-4.033,5.604-5.199,9.576
					c5.227,0.774,7.847,1.095,13.095,1.611c-0.481-4.079-1.536-7.572-3.205-10.607C390.398,470.811,389.992,470.1,389.188,468.678z"
					/>
				<path fill="#FFFFFF" d="M486.912,441.264c2.318-0.662,3.859,0.286,4.531,2.832c4.729,17.909,9.457,35.819,14.19,53.729
					c0.673,2.547-0.452,4.319-3.311,5.136c-6.032,1.724-9.063,2.503-15.147,3.902c-2.883,0.663-4.63-0.367-5.116-2.962
					c-1.891-10.09-2.834-15.134-4.724-25.224c-1.29,3.812-1.965,5.713-3.368,9.511c-0.817,2.014-2.28,3.222-4.458,3.607
					c-4.203,0.743-6.309,1.076-10.527,1.658c-2.185,0.302-4.001-0.394-5.229-2.082c-2.32-3.174-3.454-4.772-5.67-7.992
					c0.908,10.208,1.363,15.313,2.273,25.52c0.235,2.635-1.155,4.159-4.079,4.413c-6.131,0.531-9.201,0.718-15.345,0.93
					c-2.932,0.101-4.471-1.247-4.516-3.894c-0.317-18.607-0.633-37.215-0.947-55.822c-0.045-2.646,1.161-4.031,3.539-4.113
					c5.278-0.182,7.915-0.346,13.182-0.818c1.88-0.169,3.427,0.587,4.515,2.396c5.642,8.93,8.665,13.317,15.099,21.892
					c3.915-10.209,5.661-15.351,8.728-25.663c0.554-2.068,1.836-3.272,3.691-3.696C479.321,443.358,481.86,442.707,486.912,441.264z
					"/>
				<path fill="#FFFFFF" d="M552.596,433.436c2.011,3.921-1.222,12.885-1.222,12.885c0.382,0.619,11.798,1.51,14.595,6.841
					c0.301,0.573,0.448,0.858,0.749,1.432c7.89,14.323-6.952,26.028-18.688,31.216c-8.816,4.137-17.827,7.861-26.998,11.138
					c-2.821,1.009-4.677,0.194-5.429-2.327c-5.285-17.73-10.571-35.46-15.854-53.191c-0.751-2.521,0.046-4.223,2.334-5.041
					c8.425-3.013,12.598-4.718,20.821-8.532c9.476-4.864,23.386-7.616,28.991,4.222C552.176,432.62,552.316,432.892,552.596,433.436
					z M534.563,443.281c-0.85-1.993-2.939-2.765-5.784-1.443c-2.374,1.103-3.565,1.64-5.956,2.68
					c1.377,3.617,2.064,5.424,3.441,9.04c2.133-0.928,3.197-1.405,5.317-2.381c3.281-1.511,4.574-4.159,3.583-6.483
					C534.924,444.129,534.803,443.846,534.563,443.281z M544.682,463.511c-1.18-2.733-4.002-2.912-8.648-0.776
					c-2.139,0.982-3.21,1.461-5.361,2.396c1.558,4.09,2.334,6.138,3.892,10.227c2.593-1.127,3.887-1.71,6.461-2.904
					c4.624-2.145,5.694-4.222,4.3-7.452C545.066,464.404,544.939,464.107,544.682,463.511z"/>
				<path fill="#FFFFFF" d="M610.134,394.933c4.414,5.093,5.063,11.931,2.067,18.952c9.165,2.184,13.857,3.09,23.436,4.507
					c3.336,0.555,3.613,3.055,0.771,5.821c-5.1,4.964-7.693,7.359-12.959,11.982c-1.929,1.693-3.908,2.215-5.986,1.646
					c-8.26-2.272-12.307-3.551-20.212-6.369c-1.656,1.296-2.49,1.936-4.16,3.197c3.669,5.498,5.504,8.244,9.174,13.742
					c1.438,2.155,0.877,4.271-1.672,6.138c-5.345,3.915-8.051,5.793-13.521,9.388c-2.61,1.715-4.629,1.395-5.9-0.877
					c-8.939-15.973-17.877-31.947-26.816-47.92c-1.271-2.271-0.825-4.137,1.292-5.528c8.026-5.275,11.965-8.128,19.646-14.253
					c6.146-4.9,12.005-7.764,17.85-8.511c5.801-0.741,10.719,0.848,14.611,5.338C608.704,393.285,609.182,393.834,610.134,394.933z
					 M590.709,408.059c-1.687-2.299-4.56-2.206-7.588,0.191c-2.01,1.591-3.02,2.372-5.053,3.907
					c2.697,4.042,4.046,6.063,6.743,10.104c2.12-1.602,3.174-2.417,5.27-4.075c3.158-2.5,3.948-5.601,2.262-7.899
					C591.689,409.396,591.362,408.949,590.709,408.059z"/>
				<path fill="#FFFFFF" d="M605.939,372.529c-1.762-1.865-1.707-3.835,0.136-5.826c10.126-11.399,19.36-23.084,28.181-35.521
					c1.614-2.375,3.511-2.875,5.596-1.416c2.301,1.609,3.454,2.414,5.755,4.023c2.085,1.459,2.297,3.539,0.592,6.047
					c-5.312,7.818-10.959,15.407-16.929,22.734c2.498,2.229,3.745,3.345,6.242,5.574c6.203-7.611,9.21-11.588,14.999-19.879
					c1.779-2.548,3.749-3.123,5.812-1.633c2.276,1.645,3.414,2.464,5.69,4.108c2.063,1.49,2.182,3.681,0.312,6.36
					c-6.087,8.718-9.247,12.896-15.769,20.899c2.655,2.37,3.981,3.554,6.637,5.924c6.771-8.584,13.199-17.252,19.46-26.216
					c1.895-2.804,3.934-3.535,6.022-2.084c2.305,1.602,3.456,2.402,5.761,4.004c2.089,1.451,2.164,3.756,0.18,6.692
					c-10.977,15.687-22.602,30.439-35.361,44.713c-2.271,2.455-4.375,2.726-6.137,0.859
					C630.727,398.771,618.335,385.648,605.939,372.529z"/>
			</g>
		</g>
	</g>
	<g id="epn">
		<path fill="#FFFFFF" d="M217.606,281.995c0.168-0.81,0.671-1.228,1.479-1.228h13.167c0.809,0,1.145,0.418,0.977,1.228
			l-0.446,2.231c-0.141,0.81-0.642,1.228-1.451,1.228h-7.699l-0.53,2.65h6.583c0.81,0,1.145,0.419,1.006,1.227l-0.448,2.232
			c-0.139,0.81-0.641,1.227-1.45,1.227h-6.584l-0.557,2.817h7.95c0.81,0,1.144,0.419,1.005,1.227l-0.448,2.232
			c-0.139,0.809-0.64,1.228-1.45,1.228h-13.417c-0.81,0-1.143-0.419-1.004-1.228L217.606,281.995z"/>
		<path fill="#FFFFFF" d="M251.44,288.188c-0.364,1.869-1.424,3.348-3.125,4.408c-1.702,1.06-3.766,1.589-6.249,1.589h-2.204
			l-0.947,4.882c-0.14,0.809-0.643,1.228-1.451,1.228h-4.242c-0.808,0-1.143-0.419-1.003-1.228l3.318-17.071
			c0.169-0.81,0.672-1.228,1.48-1.228h7.669c2.455,0,4.324,0.53,5.607,1.619c1.313,1.06,1.786,2.51,1.422,4.379L251.44,288.188z
			 M244.995,286.904c0.141-0.892-0.418-1.45-1.561-1.45h-1.869l-0.781,4.072h1.869c1.143,0,1.924-0.584,2.119-1.478L244.995,286.904
			z"/>
		<path fill="#FFFFFF" d="M252.217,300.294c-0.81,0-1.145-0.419-1.004-1.228l3.319-17.071c0.167-0.81,0.669-1.228,1.479-1.228h4.49
			c0.671,0,1.09,0.308,1.256,0.894l2.203,7.42l1.367-7.086c0.167-0.81,0.669-1.228,1.478-1.228h4.241
			c0.807,0,1.143,0.418,0.976,1.228l-3.32,17.071c-0.139,0.809-0.642,1.228-1.45,1.228h-4.548c-0.667,0-1.086-0.308-1.282-0.893
			l-2.148-7.393l-1.368,7.058c-0.137,0.809-0.64,1.228-1.45,1.228H252.217z"/>
	</g>
	<g id="iconos">
		<g>
			<path fill="#FFFFFF" d="M451.569,232.099c-1.316,0-2.612,0.082-3.892,0.219c-6.622-7.897-16.547-12.934-27.634-12.934
				s-21.014,5.037-27.634,12.934c-1.28-0.137-2.577-0.219-3.892-0.219c-8.498,0-16.306,2.972-22.476,7.908l8.064,5.412
				c3.746-2.375,8.101-3.875,12.787-4.156c0.542-0.033,1.077-0.083,1.625-0.083c2.761,0,5.426,0.421,7.938,1.196
				c1.575-2.832,3.648-5.345,6.096-7.436c4.716-4.028,10.818-6.475,17.492-6.475s12.775,2.447,17.491,6.475
				c2.447,2.091,4.521,4.604,6.096,7.436c2.513-0.775,5.177-1.196,7.939-1.196c0.548,0,1.085,0.05,1.624,0.083
				c14.122,0.848,25.36,12.571,25.36,26.902c0,12.518-8.581,23.042-20.161,26.077h-4.953v0.814v9.082v24.231h-11.375v9.084h11.375
				v14.53h-66.79v-14.53h46.634v-9.084H386.65v-24.231v-9.082v-0.814h-4.956c-11.581-3.034-20.161-13.559-20.161-26.077
				c0-6.199,2.109-11.907,5.64-16.461l-7.532-5.056c-4.495,6.015-7.19,13.448-7.19,21.517c0,15.259,9.541,28.303,22.958,33.564
				v59.337h89.269v-23.612v-9.084v-26.641c13.417-5.261,22.957-18.305,22.957-33.564
				C487.635,248.279,471.456,232.099,451.569,232.099z"/>
		</g>
		<g>
			<path fill="#FFFFFF" d="M318.833,231.499c-6.054,0-11.469,3.463-15.509,9.155l7.564,5.077c2.389-3.273,5.229-5.15,7.945-5.15
				c6.479,0,13.699,10.568,13.699,25.733s-7.22,25.734-13.699,25.734c-6.481,0-13.699-10.569-13.699-25.734
				c0-4.586,0.667-8.741,1.768-12.322l-7.811-5.241c-1.927,5.132-3.041,11.106-3.041,17.563c0,17.098,7.677,30.948,18.166,34.128
				v61.236h9.082v-61.2c10.566-3.093,18.317-16.984,18.317-34.164C341.615,246.791,331.609,231.499,318.833,231.499z"/>
		</g>
		<g>
			<path fill="#FFFFFF" d="M535.24,281.438h-9.458v-50.548c0-2.508-2.033-4.542-4.542-4.542s-4.542,2.034-4.542,4.542v50.548h-9.081
				v-41.467c0-2.509-2.033-4.542-4.541-4.542c-2.509,0-4.542,2.033-4.542,4.542v45.189c0,0,5.761,5.399,5.891,5.359h12.273v70.547
				h9.084V290.52h12.65c0.159,0.05,5.891-5.251,5.891-5.251v-11.285l-9.083-6.096V281.438z"/>
			<path fill="#FFFFFF" d="M544.323,239.971c0-2.509-2.031-4.542-4.54-4.542s-4.543,2.033-4.543,4.542v16.98l9.083,6.096V239.971z"
				/>
		</g>
	</g>
	<g>
		<path fill="#FFFFFF" d="M566.962,283.039c0.155-0.742,0.615-1.126,1.358-1.126h12.08c0.743,0,1.05,0.384,0.896,1.126l-0.41,2.047
			c-0.128,0.743-0.588,1.126-1.331,1.126h-7.064l-0.563,2.943h6.194c0.743,0,1.05,0.384,0.897,1.126l-0.386,2.022
			c-0.153,0.742-0.613,1.125-1.356,1.125h-6.194l-1.023,5.273c-0.128,0.743-0.588,1.127-1.331,1.127h-3.89
			c-0.743,0-1.05-0.384-0.922-1.127L566.962,283.039z"/>
		<path fill="#FFFFFF" d="M580.964,293.124l0.896-4.505c0.818-4.3,4.095-7.014,9.701-7.014c5.86-0.025,7.756,2.918,6.963,7.014
			l-0.897,4.505c-0.793,4.146-3.787,7.013-9.676,7.013C582.143,300.137,580.195,297.244,580.964,293.124z M587.21,292.611
			c-0.41,2.278-0.052,3.226,1.562,3.226c1.639,0,2.38-0.896,2.814-3.226l0.691-3.48c0.487-2.253,0.077-3.226-1.586-3.226
			c-1.613,0-2.382,0.972-2.79,3.226L587.21,292.611z"/>
		<path fill="#FFFFFF" d="M599.779,293.124l0.896-4.505c0.818-4.3,4.095-7.014,9.7-7.014c5.861-0.025,7.756,2.918,6.963,7.014
			l-0.896,4.505c-0.793,4.146-3.788,7.013-9.676,7.013C600.957,300.137,599.011,297.244,599.779,293.124z M606.025,292.611
			c-0.41,2.278-0.052,3.226,1.562,3.226c1.638,0,2.38-0.896,2.814-3.226l0.691-3.48c0.486-2.253,0.077-3.226-1.587-3.226
			c-1.612,0-2.381,0.972-2.789,3.226L606.025,292.611z"/>
		<path fill="#FFFFFF" d="M634.487,293.072c-0.741,3.839-3.89,6.758-11.032,6.758h-4.76c-0.743,0-1.05-0.384-0.922-1.127
			l3.045-15.665c0.155-0.742,0.615-1.126,1.356-1.126h5.275c6.91,0.026,8.65,2.918,7.882,6.732L634.487,293.072z M629.113,289.156
			c0.383-2.047-0.153-2.943-2.304-2.943h-0.462l-1.816,9.317h0.46c2.021,0,3.047-0.921,3.457-2.943L629.113,289.156z"/>
	</g>
</g>
</svg>
