<?xml version="1.0" encoding="utf-8"?>
<!-- Generator: Adobe Illustrator 16.0.3, SVG Export Plug-In . SVG Version: 6.00 Build 0)  -->
<!DOCTYPE svg PUBLIC "-//W3C//DTD SVG 1.1//EN" "http://www.w3.org/Graphics/SVG/1.1/DTD/svg11.dtd">
<svg version="1.1" id="Capa_1" xmlns="http://www.w3.org/2000/svg" xmlns:xlink="http://www.w3.org/1999/xlink" x="0px" y="0px"
	 width="200px" height="200px" viewBox="0 0 200 200" enable-background="new 0 0 200 200" xml:space="preserve">
<g display="none">
	<g display="inline">
		<path fill="#D85C00" d="M119.58,18.401c-0.788,0-1.564,0.038-2.329,0.104c-3.96-3.827-9.904-6.269-16.542-6.269
			c-6.639,0-12.582,2.442-16.542,6.269c-0.764-0.066-1.542-0.104-2.333-0.104c-5.085,0-9.758,1.44-13.453,3.833l4.826,2.625
			c2.243-1.152,4.853-1.88,7.655-2.016c0.327-0.016,0.646-0.038,0.972-0.038c1.655,0,3.252,0.203,4.756,0.581
			c0.941-1.374,2.182-2.594,3.65-3.608c2.823-1.953,6.475-3.135,10.47-3.135c3.996,0,7.648,1.182,10.469,3.135
			c1.467,1.014,2.71,2.234,3.65,3.608c1.504-0.378,3.1-0.581,4.752-0.581c0.33,0,0.651,0.022,0.972,0.038
			c8.457,0.412,15.185,6.095,15.185,13.043c0,6.07-5.138,11.172-12.068,12.642h-2.965v0.398v4.402v11.748h-6.81v4.405h6.81v7.043
			H80.718v-7.043h27.917v-4.405H80.718V53.33v-4.402v-0.398h-2.966c-6.935-1.47-12.071-6.572-12.071-12.642
			c0-3.006,1.261-5.772,3.379-7.981l-4.512-2.452c-2.691,2.919-4.305,6.522-4.305,10.433c0,7.4,5.71,13.723,13.743,16.271v28.773
			h53.444v-11.45v-4.405V52.159c8.032-2.548,13.743-8.871,13.743-16.271C141.174,26.246,131.485,18.401,119.58,18.401z"/>
	</g>
	<g display="inline">
		<path fill="none" d="M75.937,102.26c0,6.493,2.428,12.627,6.834,17.356l4.696,5.006l-6.32,2.509
			c-18.729,7.472-32.321,29.293-32.321,51.288c0,0.052,0.002,2.581,0.002,4.581H150c0-2,0-5.184,0-5.234
			c0-21.373-12.421-41.046-30.942-49.079l-6.235-2.668l4.835-4.864c4.589-4.646,7.331-11.484,7.331-18.465
			c0-8.575-4.094-15.689-10.341-20.689H86.179C79.989,84,75.937,93.881,75.937,102.26z"/>
		<path fill="#D85C00" d="M128.427,122.901c3.86-5.843,5.833-12.963,5.833-20.187c0-7.81-2.751-15.715-6.949-20.715h-12.663
			c6.247,5,10.343,12.114,10.343,20.689c0,6.98-2.739,13.867-7.329,18.513l-4.831,4.842l6.228,2.653
			C137.579,136.729,150,156.393,150,177.766c0,0.051,0,3.234,0,5.234H48.829c0-2-0.002-4.537-0.002-4.589
			c0-21.994,13.592-43.511,32.321-50.985l6.32-2.678l-4.696-5.105c-4.406-4.729-6.834-10.854-6.834-17.346
			C75.937,93.918,79.989,84,86.179,82H73.508c-4.133,5-6.609,12.676-6.609,20.318c0,6.766,1.918,13.284,5.485,18.859
			c-19.448,10.494-32.593,33.131-32.593,57.042c0,0.104,0.003,8.238,0.003,8.859L39.797,192h119.267l0.937-4.779
			c0-0.619,0-9.176,0-9.278C160,155.001,147.246,133.618,128.427,122.901z"/>
	</g>
</g>
<g>
	<path fill="#D85C00" d="M162,181.718c0,2.365-1.767,4.282-3.946,4.282H45.946c-2.18,0-3.946-1.917-3.946-4.282V10.282
		C42,7.917,43.767,6,45.946,6h112.107c2.18,0,3.946,1.917,3.946,4.282V181.718z M49,176h106V14H49V176z"/>
	<g>
		<path fill="#D85C00" d="M84.917,34.127c0.675,0,1.025,0.381,1.025,1.114v15.482c0,0.735-0.35,1.113-1.025,1.113h-3.567
			c-0.675,0-1.025-0.378-1.025-1.113v-7.134l-1.236,2.405c-0.279,0.505-0.675,0.757-1.213,0.757h-2.588
			c-0.536,0-0.955-0.252-1.212-0.757l-1.213-2.379v7.108c0,0.735-0.35,1.113-1.025,1.113h-3.543c-0.677,0-1.025-0.378-1.025-1.113
			V35.241c0-0.733,0.348-1.114,1.025-1.114h3.753c0.536,0,0.957,0.254,1.211,0.783l3.357,6.579l3.405-6.579
			c0.257-0.529,0.675-0.783,1.213-0.783H84.917z"/>
		<path fill="#D85C00" d="M88.706,35.241c0-0.733,0.35-1.114,1.024-1.114h11.005c0.675,0,1.025,0.381,1.025,1.114v2.023
			c0,0.733-0.35,1.113-1.025,1.113h-6.433v2.403h5.501c0.677,0,1.025,0.38,1.025,1.115v2.023c0,0.733-0.348,1.112-1.025,1.112
			h-5.501v2.555h6.644c0.676,0,1.025,0.379,1.025,1.114v2.023c0,0.735-0.35,1.113-1.025,1.113H89.73
			c-0.674,0-1.024-0.378-1.024-1.113V35.241z"/>
		<path fill="#D85C00" d="M105.088,51.836c-0.677,0-1.026-0.378-1.026-1.113V35.241c0-0.733,0.35-1.114,1.026-1.114h3.754
			c0.56,0,0.956,0.278,1.211,0.81l3.032,6.73v-6.426c0-0.733,0.352-1.114,1.026-1.114h3.542c0.677,0,1.027,0.381,1.027,1.114v15.482
			c0,0.735-0.351,1.113-1.027,1.113h-3.799c-0.562,0-0.956-0.277-1.213-0.81l-2.984-6.702v6.399c0,0.735-0.351,1.113-1.025,1.113
			H105.088z"/>
		<path fill="#D85C00" d="M121.467,45.184v-9.943c0-0.733,0.352-1.114,1.027-1.114h3.545c0.676,0,1.025,0.381,1.025,1.114v9.816
			c0,1.898,0.512,2.783,1.725,2.783c1.237,0,1.796-0.885,1.796-2.783v-9.816c0-0.733,0.35-1.114,1.025-1.114h3.543
			c0.678,0,1.027,0.381,1.027,1.114v9.943c0,5.059-3.148,6.957-7.367,6.957C124.779,52.141,121.467,50.243,121.467,45.184z
			 M131.004,28.891c0.444,0.529,0.398,1.139-0.162,1.569l-2.378,1.847c-0.514,0.402-1.003,0.352-1.446-0.153l-0.396-0.43
			c-0.442-0.531-0.42-1.113,0.069-1.593l2.192-2.126c0.514-0.505,1.001-0.479,1.445,0.077L131.004,28.891z"/>
	</g>
	<path fill="#D85C00" d="M139.455,94.583c-2.207-2.798-4.236-4.148-6.383-4.255c-2.846-0.165-4.951,2.052-6.789,3.994
		c-1.087,1.146-2.207,2.325-3.412,2.996c-0.799-0.211-1.882-0.993-2.855-1.694c-0.656-0.479-1.342-0.952-2.054-1.374
		c-2.1-2.563-4.049-3.821-6.104-3.922c-2.852-0.165-4.953,2.052-6.79,3.994c-1.066,1.126-2.168,2.28-3.349,2.953
		c-1.18-0.673-2.281-1.827-3.348-2.953c-1.837-1.942-3.936-4.159-6.79-3.994c-2.056,0.101-4.003,1.359-6.104,3.922
		c-0.712,0.422-1.396,0.896-2.056,1.374c-0.972,0.701-2.052,1.483-2.854,1.694c-1.203-0.671-2.325-1.85-3.411-2.996
		c-1.839-1.942-3.945-4.159-6.79-3.994c-2.146,0.107-4.174,1.457-6.381,4.255c-0.801,1.013-0.695,2.543,0.241,3.416
		c0.938,0.869,2.347,0.752,3.15-0.264c1.275-1.615,2.411-2.528,3.193-2.565c0.953-0.039,2.171,1.253,3.474,2.625
		c1.461,1.545,3.121,3.184,5.322,4.141L79.764,102h0.433c2.165,0,4.043-1.25,5.703-2.455c0.707-0.512,1.374-0.937,1.994-1.273
		c0.026-0.013,0.045-0.003,0.069-0.02c0.105-0.06,0.21-0.112,0.305-0.196c0.121-0.103,0.229-0.208,0.328-0.331
		c1.275-1.614,2.407-2.521,3.191-2.559c0.931-0.041,2.168,1.253,3.471,2.627c1.465,1.543,3.125,3.187,5.322,4.143L100.98,102h0.428
		c0.146,0,0.275-0.021,0.409-0.032c0.074,0.006,0.131,0.032,0.212,0.032h0.431l0.399-0.064c1.385-0.602,2.541-1.488,3.583-2.43
		c0.042-0.031,0.081-0.07,0.124-0.102c0.031-0.021,0.056-0.071,0.087-0.1c0.532-0.495,1.048-1.002,1.528-1.509
		c1.303-1.375,2.54-2.671,3.473-2.63c0.782,0.037,1.916,0.942,3.189,2.557c0.101,0.123,0.207,0.227,0.328,0.33
		c0.095,0.084,0.199,0.131,0.305,0.19c0.024,0.017,0.043-0.003,0.069,0.01c0.62,0.337,1.287,0.781,1.993,1.293
		c1.66,1.203,3.54,2.454,5.705,2.454h0.431l0.397-0.064c2.201-0.957,3.86-2.577,5.322-4.122c1.305-1.372,2.522-2.673,3.474-2.634
		c0.784,0.037,1.919,0.944,3.195,2.561c0.804,1.015,2.211,1.131,3.148,0.261C140.148,97.128,140.257,95.596,139.455,94.583z"/>
	<path fill="#D85C00" d="M139.455,120.276c-2.207-2.798-4.236-4.147-6.383-4.254c-2.846-0.165-4.951,2.051-6.789,3.994
		c-1.087,1.146-2.207,2.324-3.412,2.996c-0.799-0.212-1.882-0.993-2.855-1.694c-0.656-0.479-1.342-0.952-2.054-1.375
		c-2.1-2.562-4.049-3.82-6.104-3.921c-2.852-0.165-4.953,2.051-6.79,3.994c-1.066,1.126-2.168,2.279-3.349,2.953
		c-1.18-0.674-2.281-1.827-3.348-2.953c-1.837-1.943-3.936-4.159-6.79-3.994c-2.056,0.101-4.003,1.359-6.104,3.921
		c-0.712,0.423-1.396,0.896-2.056,1.375c-0.972,0.701-2.052,1.482-2.854,1.694c-1.203-0.672-2.325-1.85-3.411-2.996
		c-1.839-1.943-3.945-4.159-6.79-3.994c-2.146,0.106-4.174,1.456-6.381,4.254c-0.801,1.016-0.695,2.543,0.241,3.417
		c0.938,0.869,2.347,0.751,3.15-0.264c1.275-1.614,2.411-2.528,3.193-2.566c0.953-0.039,2.171,1.253,3.474,2.626
		c1.461,1.545,3.121,3.836,5.322,4.794L79.764,129h0.433c2.165,0,4.043-1.902,5.703-3.106c0.707-0.513,1.374-1.265,1.994-1.601
		c0.026-0.014,0.045-0.168,0.069-0.186c0.105-0.06,0.21-0.191,0.305-0.275c0.121-0.104,0.229-0.249,0.328-0.372
		c1.275-1.614,2.407-2.541,3.191-2.58c0.931-0.039,2.168,1.244,3.471,2.619c1.465,1.542,3.125,3.832,5.322,4.788L100.98,129h0.428
		c0.146,0,0.275-0.021,0.409-0.031c0.074,0.006,0.131,0.031,0.212,0.031h0.431l0.399-0.717c1.385-0.603,2.541-1.816,3.583-2.756
		c0.042-0.031,0.081-0.236,0.124-0.268c0.031-0.021,0.056-0.151,0.087-0.179c0.532-0.496,1.048-1.043,1.528-1.55
		c1.303-1.375,2.54-2.69,3.473-2.651c0.782,0.039,1.916,0.934,3.189,2.548c0.101,0.123,0.207,0.221,0.328,0.323
		c0.095,0.084,0.199,0.128,0.305,0.188c0.024,0.018,0.043-0.004,0.069,0.011c0.62,0.337,1.287,1.434,1.993,1.946
		c1.66,1.202,3.54,3.104,5.705,3.104h0.431l0.397-0.717c2.201-0.958,3.86-2.904,5.322-4.449c1.305-1.371,2.522-2.838,3.474-2.799
		c0.784,0.037,1.919,0.866,3.195,2.48c0.804,1.016,2.211,1.091,3.148,0.221C140.148,122.863,140.257,121.292,139.455,120.276z"/>
	<path fill="#D85C00" d="M139.455,144.258c-2.207-2.798-4.236-4.148-6.383-4.255c-2.846-0.164-4.951,2.054-6.789,3.995
		c-1.087,1.146-2.207,2.326-3.412,2.995c-0.799-0.209-1.882-0.993-2.855-1.694c-0.656-0.479-1.342-0.951-2.054-1.374
		c-2.1-2.563-4.049-3.818-6.104-3.922c-2.852-0.164-4.953,2.054-6.79,3.995c-1.066,1.125-2.168,2.279-3.349,2.952
		c-1.18-0.673-2.281-1.827-3.348-2.952c-1.837-1.941-3.936-4.159-6.79-3.995c-2.056,0.104-4.003,1.359-6.104,3.922
		c-0.712,0.423-1.396,0.896-2.056,1.374c-0.972,0.701-2.052,1.485-2.854,1.694c-1.203-0.669-2.325-1.85-3.411-2.995
		c-1.839-1.941-3.945-4.159-6.79-3.995c-2.146,0.106-4.174,1.457-6.381,4.255c-0.801,1.016-0.695,2.543,0.241,3.416
		c0.938,0.87,2.347,0.752,3.15-0.264c1.275-1.613,2.411-2.528,3.193-2.565c0.953-0.039,2.171,1.253,3.474,2.626
		c1.461,1.544,3.121,3.346,5.322,4.303L79.764,152h0.433c2.165,0,4.043-1.412,5.703-2.617c0.707-0.512,1.374-1.018,1.994-1.354
		c0.026-0.013,0.045-0.045,0.069-0.062c0.105-0.061,0.21-0.131,0.305-0.215c0.121-0.103,0.229-0.219,0.328-0.342
		c1.275-1.614,2.407-2.526,3.191-2.566c0.931-0.039,2.168,1.254,3.471,2.629c1.465,1.542,3.125,3.345,5.322,4.3L100.98,152h0.428
		c0.146,0,0.275-0.021,0.409-0.032c0.074,0.006,0.131,0.032,0.212,0.032h0.431l0.399-0.227c1.385-0.602,2.541-1.57,3.583-2.509
		c0.042-0.033,0.081-0.114,0.124-0.146c0.031-0.019,0.056-0.089,0.087-0.117c0.532-0.495,1.048-1.013,1.528-1.52
		c1.303-1.375,2.54-2.677,3.473-2.638c0.782,0.04,1.916,0.943,3.189,2.558c0.101,0.123,0.207,0.225,0.328,0.327
		c0.095,0.084,0.199,0.13,0.305,0.189c0.024,0.017,0.043-0.003,0.069,0.011c0.62,0.336,1.287,0.942,1.993,1.455
		c1.66,1.204,3.54,2.616,5.705,2.616h0.431l0.397-0.227c2.201-0.957,3.86-2.658,5.322-4.203c1.305-1.372,2.522-2.716,3.474-2.677
		c0.784,0.038,1.919,0.929,3.195,2.542c0.804,1.016,2.211,1.121,3.148,0.251C140.148,146.813,140.257,145.273,139.455,144.258z"/>
</g>
</svg>
