<?xml version="1.0" encoding="utf-8"?>
<!-- Generator: Adobe Illustrator 16.0.3, SVG Export Plug-In . SVG Version: 6.00 Build 0)  -->
<!DOCTYPE svg PUBLIC "-//W3C//DTD SVG 1.1//EN" "http://www.w3.org/Graphics/SVG/1.1/DTD/svg11.dtd">
<svg version="1.1" id="Capa_1" xmlns="http://www.w3.org/2000/svg" xmlns:xlink="http://www.w3.org/1999/xlink" x="0px" y="0px"
	 width="200px" height="200px" viewBox="0 0 200 200" enable-background="new 0 0 200 200" xml:space="preserve">
<g>
	<g>
		<path fill="#D85C00" d="M119.58,18.401c-0.788,0-1.564,0.038-2.329,0.104c-3.96-3.827-9.904-6.269-16.542-6.269
			c-6.639,0-12.582,2.442-16.542,6.269c-0.764-0.066-1.542-0.104-2.333-0.104c-5.085,0-9.758,1.44-13.453,3.833l4.826,2.625
			c2.243-1.152,4.853-1.88,7.655-2.016c0.327-0.016,0.646-0.038,0.972-0.038c1.655,0,3.252,0.203,4.756,0.581
			c0.941-1.374,2.182-2.594,3.65-3.608c2.823-1.953,6.475-3.135,10.47-3.135c3.996,0,7.648,1.182,10.469,3.135
			c1.467,1.014,2.71,2.234,3.65,3.608c1.504-0.378,3.1-0.581,4.752-0.581c0.33,0,0.651,0.022,0.972,0.038
			c8.457,0.412,15.185,6.095,15.185,13.043c0,6.07-5.138,11.172-12.068,12.642h-2.965v0.398v4.402v11.748h-6.81v4.405h6.81v7.043
			H80.718v-7.043h27.917v-4.405H80.718V53.33v-4.402v-0.398h-2.966c-6.935-1.47-12.071-6.572-12.071-12.642
			c0-3.006,1.261-5.772,3.379-7.981l-4.512-2.452c-2.691,2.919-4.305,6.522-4.305,10.433c0,7.4,5.71,13.723,13.743,16.271v28.773
			h53.444v-11.45v-4.405V52.159c8.032-2.548,13.743-8.871,13.743-16.271C141.174,26.246,131.485,18.401,119.58,18.401z"/>
	</g>
	<g>
		<path fill="none" d="M75.937,102.26c0,6.493,2.428,12.627,6.834,17.356l4.696,5.006l-6.32,2.509
			c-18.729,7.472-32.321,29.293-32.321,51.288c0,0.052,0.002,2.581,0.002,4.581H150c0-2,0-5.184,0-5.234
			c0-21.373-12.421-41.046-30.942-49.079l-6.235-2.668l4.835-4.864c4.589-4.646,7.331-11.484,7.331-18.465
			c0-8.575-4.094-15.689-10.341-20.689H86.179C79.989,84,75.937,93.881,75.937,102.26z"/>
		<path fill="#D85C00" d="M128.427,122.901c3.86-5.843,5.833-12.963,5.833-20.187c0-7.81-2.751-15.715-6.949-20.715h-12.663
			c6.247,5,10.343,12.114,10.343,20.689c0,6.98-2.739,13.867-7.329,18.513l-4.831,4.842l6.228,2.653
			C137.579,136.729,150,156.393,150,177.766c0,0.051,0,3.234,0,5.234H48.829c0-2-0.002-4.537-0.002-4.589
			c0-21.994,13.592-43.511,32.321-50.985l6.32-2.678l-4.696-5.105c-4.406-4.729-6.834-10.854-6.834-17.346
			C75.937,93.918,79.989,84,86.179,82H73.508c-4.133,5-6.609,12.676-6.609,20.318c0,6.766,1.918,13.284,5.485,18.859
			c-19.448,10.494-32.593,33.131-32.593,57.042c0,0.104,0.003,8.238,0.003,8.859L39.797,192h119.267l0.937-4.779
			c0-0.619,0-9.176,0-9.278C160,155.001,147.246,133.618,128.427,122.901z"/>
	</g>
</g>
</svg>
