<?xml version="1.0" encoding="utf-8"?>
<!-- Generator: Adobe Illustrator 16.0.3, SVG Export Plug-In . SVG Version: 6.00 Build 0)  -->
<!DOCTYPE svg PUBLIC "-//W3C//DTD SVG 1.1//EN" "http://www.w3.org/Graphics/SVG/1.1/DTD/svg11.dtd">
<svg version="1.1" xmlns="http://www.w3.org/2000/svg" xmlns:xlink="http://www.w3.org/1999/xlink" x="0px" y="0px" width="480px"
	 height="800px" viewBox="0 0 480 800" enable-background="new 0 0 480 800" xml:space="preserve">
<g id="Capa_1">
</g>
<g id="Capa_4">
	<rect opacity="0.2" fill="#DDDDDD" width="480" height="800"/>
	<g opacity="0.7">
		<g>
			
				<line fill="none" stroke="#DDDDDD" stroke-width="5" stroke-miterlimit="10" x1="238.041" y1="208.966" x2="238.041" y2="206.466"/>
			
				<line fill="none" stroke="#DDDDDD" stroke-width="5" stroke-miterlimit="10" stroke-dasharray="5.1157,5.1157" x1="238.041" y1="201.351" x2="238.041" y2="122.058"/>
			<line fill="none" stroke="#DDDDDD" stroke-width="5" stroke-miterlimit="10" x1="238.041" y1="119.5" x2="238.041" y2="117"/>
		</g>
	</g>
	
		<line opacity="0.7" fill="none" stroke="#DDDDDD" stroke-width="5" stroke-miterlimit="10" stroke-dasharray="5" x1="238.041" y1="117" x2="155" y2="117"/>
	
		<line fill="none" stroke="#DDDDDD" stroke-width="5" stroke-miterlimit="10" stroke-dasharray="5" x1="155" y1="117" x2="155" y2="0"/>
	
		<line fill="none" stroke="#DDDDDD" stroke-width="5" stroke-miterlimit="10" stroke-dasharray="5" x1="3.517" y1="237" x2="61.941" y2="237"/>
	
		<line fill="none" stroke="#DDDDDD" stroke-width="5" stroke-miterlimit="10" stroke-dasharray="5" x1="59.995" y1="347.512" x2="59.995" y2="227.012"/>
	
		<line fill="none" stroke="#DDDDDD" stroke-width="5" stroke-miterlimit="10" stroke-dasharray="5" x1="57.155" y1="345.763" x2="117.127" y2="345.763"/>
	
		<line fill="none" stroke="#DDDDDD" stroke-width="5" stroke-miterlimit="10" stroke-dasharray="5" x1="480" y1="528.006" x2="392.617" y2="528.006"/>
	
		<line fill="none" stroke="#DDDDDD" stroke-width="5" stroke-miterlimit="10" stroke-dasharray="5" x1="395.35" y1="417.756" x2="395.35" y2="538.256"/>
	
		<line fill="none" stroke="#DDDDDD" stroke-width="5" stroke-miterlimit="10" stroke-dasharray="5" x1="174.86" y1="450.755" x2="174.86" y2="800"/>
	
		<line fill="none" stroke="#DDDDDD" stroke-width="5" stroke-miterlimit="10" stroke-dasharray="5" x1="395.35" y1="417.756" x2="330.11" y2="417.756"/>
	
		<line fill="none" stroke="#DDDDDD" stroke-width="5" stroke-miterlimit="10" stroke-dasharray="5" x1="304.254" y1="243.493" x2="444.5" y2="243.493"/>
	
		<line fill="none" stroke="#DDDDDD" stroke-width="5" stroke-miterlimit="10" stroke-dasharray="5" x1="444.5" y1="243.493" x2="444.5" y2="121.912"/>
	
		<line fill="none" stroke="#DDDDDD" stroke-width="5" stroke-miterlimit="10" stroke-dasharray="5" x1="468.522" y1="121.912" x2="444.5" y2="121.912"/>
	<circle opacity="0.7" fill="#DDDDDD" cx="241.799" cy="343.05" r="87.192"/>
	<circle fill="none" stroke="#DDDDDD" stroke-width="7" stroke-miterlimit="10" cx="241.396" cy="343.05" r="120.163"/>
</g>
<g id="Capa_2" display="none">
	
		<line display="inline" fill="none" stroke="#DDDDDD" stroke-width="5" stroke-miterlimit="10" stroke-dasharray="5" x1="174.766" y1="622.255" x2="0" y2="622.255"/>
	<g>
		<rect display="inline" fill="#16212B" stroke="#000000" stroke-miterlimit="10" width="480" height="800"/>
		<g display="inline">
			<g id="Muertos">
				<path fill="#FFFFFF" d="M105.159,216.966c2.292,0,3.479,1.187,3.479,3.479v48.395c0,2.292-1.186,3.479-3.479,3.479h-12.1
					c-2.292,0-3.479-1.186-3.479-3.479v-22.3l-4.19,7.512c-0.95,1.583-2.293,2.373-4.113,2.373h-8.776
					c-1.819,0-3.242-0.791-4.112-2.373l-4.112-7.433v22.221c0,2.292-1.187,3.479-3.479,3.479h-12.02c-2.292,0-3.48-1.186-3.48-3.479
					v-48.395c0-2.293,1.188-3.479,3.48-3.479H61.51c1.818,0,3.241,0.791,4.111,2.451l11.387,20.56l11.545-20.56
					c0.87-1.66,2.294-2.451,4.111-2.451H105.159z"/>
				<path fill="#FFFFFF" d="M118.04,251.522v-31.076c0-2.293,1.187-3.479,3.479-3.479h12.02c2.292,0,3.479,1.187,3.479,3.479v30.681
					c0,5.931,1.739,8.698,5.85,8.698c4.192,0,6.09-2.768,6.09-8.698v-30.681c0-2.293,1.185-3.479,3.479-3.479h12.019
					c2.293,0,3.479,1.187,3.479,3.479v31.076c0,15.816-10.676,21.746-24.987,21.746C129.268,273.268,118.04,267.338,118.04,251.522z
					"/>
				<path fill="#FFFFFF" d="M177.418,220.446c0-2.293,1.187-3.479,3.479-3.479h37.322c2.294,0,3.48,1.187,3.48,3.479v6.326
					c0,2.293-1.186,3.479-3.48,3.479h-21.824v7.513h18.663c2.292,0,3.479,1.186,3.479,3.479v6.326c0,2.293-1.187,3.48-3.479,3.48
					h-18.663v7.985h22.536c2.293,0,3.479,1.188,3.479,3.481v6.327c0,2.292-1.187,3.479-3.479,3.479h-38.035
					c-2.292,0-3.479-1.186-3.479-3.479V220.446z"/>
				<path fill="#FFFFFF" d="M277.993,237.209c0,6.01-3.082,10.753-8.224,13.601l10.997,17.318c1.499,2.451,0.469,4.19-2.295,4.19
					h-12.417c-1.818,0-3.164-0.791-4.112-2.374l-9.409-15.734h-4.034v14.629c0,2.292-1.183,3.479-3.476,3.479h-12.022
					c-2.292,0-3.479-1.186-3.479-3.479v-48.395c0-2.293,1.187-3.479,3.479-3.479h21.745c6.958,0,12.575,1.502,16.847,4.586
					c4.266,3.005,6.4,7.116,6.4,12.416V237.209z M259.096,234.363c0-2.53-1.975-4.112-5.217-4.112h-5.38v10.755h5.38
					c3.242,0,5.217-1.661,5.217-4.192V234.363z"/>
				<path fill="#FFFFFF" d="M297.998,230.25h-12.653c-2.294,0-3.482-1.185-3.482-3.479v-6.326c0-2.293,1.188-3.479,3.482-3.479
					h44.282c2.293,0,3.48,1.187,3.48,3.479v6.326c0,2.293-1.188,3.479-3.48,3.479h-12.65v38.59c0,2.292-1.188,3.479-3.481,3.479
					h-12.019c-2.294,0-3.479-1.186-3.479-3.479V230.25z"/>
				<path fill="#FFFFFF" d="M333.103,251.602v-13.918c0-12.652,7.747-21.667,25.775-21.667c18.033,0,25.702,9.015,25.702,21.667
					v13.918c0,12.73-7.669,21.666-25.702,21.666C340.85,273.268,333.103,264.411,333.103,251.602z M352.079,250.019
					c0,7.038,1.74,9.965,6.721,9.965c5.061,0,6.804-2.768,6.804-9.965v-10.753c0-7.196-1.743-9.964-6.804-9.964
					c-4.98,0-6.721,3.005-6.721,9.964V250.019z"/>
				<path fill="#FFFFFF" d="M403.314,246.857c-8.856-3.795-12.178-7.829-12.178-15.183c0-10.122,8.854-15.657,23.167-15.657
					c6.805,0,13.763,1.819,20.879,5.535c1.977,1.029,2.448,2.847,1.263,4.825l-3.318,5.535c-1.107,1.897-2.692,2.293-4.825,1.186
					c-5.063-2.768-9.806-4.19-14.313-4.19c-2.53,0-3.877,1.265-3.877,2.925c0,1.582,1.267,2.847,3.722,3.875l13.125,5.535
					c8.936,3.796,12.649,8.382,12.649,15.736c0,10.359-8.694,16.289-24.198,16.289c-7.824,0-15.572-2.056-23.088-6.167
					c-1.976-1.028-2.532-2.847-1.344-4.745l3.161-5.694c1.107-1.977,2.688-2.451,4.823-1.265c6.011,3.321,11.467,4.981,16.29,4.981
					c3.48,0,5.38-1.423,5.38-3.717c0-1.661-1.269-2.925-4.193-4.191L403.314,246.857z"/>
			</g>
			<g id="de_hambre">
				<g>
					<g>
						<path fill="#FFFFFF" d="M127.205,395.295c-9.901,8.285-18.184-2.074-24.914-9.077c-2.999-3.925-4.46-5.955-7.292-10.146
							c-1.104-1.634-1.062-2.916,0.101-3.724c8.175-5.68,16.35-11.361,24.526-17.039c1.163-0.808,2.217-0.525,3.113,0.8
							c2.544,3.765,3.86,5.582,6.57,9.082c8.846,11.425,8.587,18.453,3.659,23.824C130.662,391.526,129.51,392.783,127.205,395.295z
							 M123.102,379.572c2.888-2.656,3.116-4.968,0.193-8.724c-0.25-0.322-0.375-0.483-0.625-0.808
							c-5.467,4.571-8.2,6.856-13.667,11.428c0.278,0.361,0.417,0.542,0.696,0.901c2.987,3.838,5.714,4.271,8.565,1.649
							C120.2,382.239,121.167,381.352,123.102,379.572z"/>
						<path fill="#FFFFFF" d="M143.701,384.479c0.934-1.085,1.965-1.11,3.042-0.104c7.008,6.553,10.694,9.482,18.312,14.643
							c1.17,0.793,1.407,1.836,0.684,3.089c-0.798,1.383-1.199,2.076-1.997,3.458c-0.724,1.253-1.743,1.482-2.979,0.646
							c-4.704-3.187-7.01-4.906-11.504-8.596c-1.108,1.523-1.661,2.284-2.77,3.808c3.958,3.249,5.98,4.779,10.098,7.65
							c1.265,0.882,1.543,1.965,0.804,3.207c-0.815,1.371-1.223,2.057-2.038,3.428c-0.739,1.241-1.816,1.42-3.146,0.492
							c-4.329-3.019-6.455-4.626-10.617-8.042c-1.179,1.62-1.767,2.432-2.946,4.052c5.173,4.247,7.829,6.219,13.25,9.868
							c1.379,0.928,1.727,2.043,1.007,3.297c-0.794,1.385-1.191,2.075-1.985,3.46c-0.72,1.255-1.848,1.42-3.292,0.448
							c-8.152-5.489-15.851-11.645-23.027-18.358c-1.327-1.241-1.522-2.463-0.588-3.548
							C130.573,399.746,137.136,392.111,143.701,384.479z"/>
						<path fill="#FFFFFF" d="M179.087,409.886c0.597-1.327,1.538-1.683,2.771-1.073c2.584,1.277,3.888,1.88,6.513,3.013
							c1.252,0.54,1.646,1.513,1.148,2.886c-1.385,3.824-2.076,5.74-3.461,9.564c2.57,1.063,3.862,1.564,6.462,2.501
							c1.225-3.886,1.836-5.832,3.06-9.719c0.439-1.396,1.325-1.873,2.601-1.435c2.658,0.913,3.995,1.333,6.681,2.104
							c1.29,0.37,1.783,1.283,1.446,2.71c-2.373,10.038-4.749,20.076-7.121,30.115c-0.337,1.427-1.338,1.947-2.928,1.491
							c-3.312-0.95-4.958-1.468-8.235-2.594c-1.573-0.54-2.155-1.56-1.715-2.954c1.467-4.655,2.2-6.986,3.667-11.642
							c-2.735-0.985-4.095-1.509-6.798-2.628c-1.66,4.581-2.489,6.873-4.148,11.454c-0.498,1.373-1.558,1.755-3.102,1.089
							c-3.237-1.396-4.845-2.139-8.032-3.713c-1.52-0.751-1.99-1.843-1.394-3.17C170.694,428.552,174.895,419.221,179.087,409.886z"
							/>
						<path fill="#FFFFFF" d="M228.242,422.242c1.045,0.106,1.825,0.637,2.355,1.598c1.725,2.955,2.634,4.418,4.537,7.313
							c1.678,2.519,2.852,4.758,3.481,6.671c0.635,1.928,0.996,4.436,0.957,7.531c-0.055,4.345-0.083,6.518-0.138,10.861
							c-0.019,1.472-0.871,2.228-2.501,2.179c-3.396-0.101-5.094-0.196-8.483-0.473c-1.627-0.133-2.403-0.977-2.279-2.442
							c0.205-2.426,0.308-3.642,0.512-6.067c-3.28-0.317-4.918-0.519-8.184-1.008c-0.316,2.412-0.474,3.62-0.79,6.032
							c-0.191,1.458-1.127,2.093-2.744,1.825c-3.39-0.561-5.081-0.887-8.449-1.625c-1.606-0.353-2.282-1.296-1.986-2.733
							c0.871-4.243,1.307-6.366,2.178-10.609c0.621-3.024,1.474-5.367,2.49-7.107c1.016-1.741,2.654-3.603,4.832-5.644
							c2.498-2.349,3.705-3.551,6.035-6.004c0.721-0.807,1.596-1.131,2.594-0.986C224.889,421.876,226.006,422.014,228.242,422.242z
							 M224.227,433.021c-0.584,0.663-0.879,0.992-1.475,1.649c-1.259,1.368-2.245,3.117-2.894,5.326
							c2.908,0.431,4.366,0.611,7.285,0.898c-0.269-2.269-0.853-4.213-1.782-5.902C224.901,434.205,224.674,433.812,224.227,433.021
							z"/>
						<path fill="#FFFFFF" d="M278.598,417.766c1.289-0.368,2.146,0.158,2.521,1.575c2.629,9.966,5.262,19.931,7.896,29.895
							c0.375,1.417-0.252,2.404-1.841,2.858c-3.356,0.959-5.043,1.394-8.429,2.172c-1.603,0.369-2.575-0.206-2.846-1.649
							c-1.052-5.613-1.578-8.419-2.629-14.032c-0.718,2.12-1.094,3.178-1.874,5.291c-0.454,1.121-1.265,1.792-2.478,2.007
							c-2.338,0.414-3.512,0.598-5.859,0.922c-1.215,0.168-2.226-0.219-2.908-1.159c-1.291-1.766-1.92-2.655-3.153-4.446
							c0.506,5.679,0.759,8.519,1.266,14.197c0.131,1.466-0.643,2.315-2.269,2.456c-3.411,0.296-5.122,0.399-8.541,0.518
							c-1.629,0.056-2.485-0.693-2.511-2.165c-0.176-10.354-0.353-20.708-0.526-31.063c-0.025-1.472,0.647-2.24,1.969-2.286
							c2.937-0.102,4.403-0.192,7.333-0.455c1.048-0.094,1.908,0.324,2.513,1.331c3.139,4.969,4.82,7.41,8.4,12.182
							c2.179-5.681,3.149-8.542,4.856-14.279c0.309-1.151,1.02-1.82,2.051-2.056C274.374,418.931,275.787,418.568,278.598,417.766z"
							/>
						<path fill="#FFFFFF" d="M315.146,413.412c1.119,2.182-0.68,7.166-0.68,7.166c0.212,0.345,6.561,0.844,8.117,3.81
							c0.167,0.318,0.254,0.478,0.421,0.796c3.183,6.064,0.521,12.238-10.397,17.364c-5.929,2.783-8.939,4.023-15.021,6.198
							c-1.568,0.561-2.598,0.108-3.017-1.294c-2.944-9.864-5.882-19.73-8.824-29.596c-0.418-1.403,0.028-2.351,1.3-2.806
							c4.688-1.676,7.009-2.625,11.584-4.747c7.968-3.695,13.23-3.303,16.13,2.351C314.913,412.957,314.99,413.109,315.146,413.412z
							 M305.113,418.889c-0.473-1.108-1.634-1.539-3.216-0.804c-1.321,0.613-1.986,0.912-3.316,1.49
							c0.766,2.013,1.149,3.02,1.915,5.031c1.187-0.516,1.778-0.781,2.958-1.324c1.824-0.84,2.545-2.317,1.994-3.61
							C305.314,419.357,305.247,419.203,305.113,418.889z M310.743,430.143c-0.656-1.521-2.228-1.621-4.813-0.434
							c-1.189,0.547-1.786,0.816-2.982,1.337c0.866,2.275,1.299,3.411,2.165,5.687c1.442-0.627,2.162-0.95,3.594-1.614
							c2.573-1.193,3.168-2.347,2.392-4.145C310.955,430.642,310.887,430.475,310.743,430.143z"/>
						<path fill="#FFFFFF" d="M347.158,391.989c2.456,2.834,2.818,6.636,1.151,10.542c5.1,1.215,7.708,1.721,13.037,2.51
							c1.857,0.309,2.011,1.699,0.431,3.237c-2.838,2.762-4.279,4.095-7.21,6.667c-1.072,0.941-2.172,1.232-3.33,0.918
							c-4.596-1.265-6.847-1.978-11.245-3.546c-0.922,0.721-1.386,1.078-2.315,1.78c2.042,3.059,3.063,4.587,5.104,7.646
							c0.801,1.199,0.49,2.375-0.929,3.415c-2.973,2.178-4.478,3.222-7.521,5.222c-1.453,0.955-2.58,0.776-3.287-0.487
							c-4.972-8.889-9.95-17.773-14.921-26.663c-0.707-1.264-0.457-2.302,0.722-3.076c4.465-2.935,6.654-4.52,10.927-7.927
							c3.419-2.727,6.679-4.319,9.931-4.735c3.226-0.412,5.964,0.472,8.129,2.97C346.362,391.072,346.628,391.378,347.158,391.989z
							 M336.352,399.291c-0.938-1.279-2.537-1.227-4.223,0.107c-1.118,0.885-1.68,1.32-2.811,2.175
							c1.501,2.249,2.25,3.371,3.75,5.619c1.18-0.891,1.768-1.345,2.934-2.268c1.758-1.392,2.196-3.114,1.258-4.394
							C336.896,400.035,336.715,399.786,336.352,399.291z"/>
						<path fill="#FFFFFF" d="M344.827,379.52c-0.98-1.038-0.949-2.133,0.074-3.239c6.671-7.209,9.831-11.163,15.679-19.764
							c0.897-1.32,1.951-1.597,3.111-0.785c1.28,0.896,1.922,1.342,3.202,2.238c1.16,0.812,1.279,1.969,0.331,3.363
							c-3.61,5.311-5.498,7.841-9.417,12.649c1.39,1.24,2.084,1.861,3.474,3.101c3.451-4.234,5.124-6.447,8.345-11.06
							c0.99-1.418,2.083-1.736,3.23-0.907c1.267,0.915,1.9,1.373,3.167,2.288c1.146,0.829,1.213,2.043,0.172,3.534
							c-3.386,4.85-5.143,7.176-8.771,11.628c1.478,1.319,2.216,1.978,3.693,3.296c4.51-5.534,6.678-8.452,10.821-14.583
							c1.055-1.562,2.192-1.967,3.354-1.161c1.282,0.891,1.924,1.335,3.206,2.227c1.162,0.808,1.205,2.09,0.1,3.726
							c-6.191,8.67-12.429,17.035-19.672,24.874c-1.263,1.364-2.435,1.516-3.415,0.478
							C358.617,394.121,351.724,386.819,344.827,379.52z"/>
					</g>
				</g>
			</g>
			<g id="epn">
				<path fill="#FFFFFF" d="M128.763,329.151c0.093-0.45,0.373-0.683,0.822-0.683h7.326c0.45,0,0.637,0.232,0.544,0.683
					l-0.249,1.241c-0.078,0.451-0.356,0.683-0.807,0.683h-4.284l-0.295,1.475h3.663c0.451,0,0.637,0.233,0.559,0.683l-0.249,1.242
					c-0.077,0.451-0.357,0.683-0.807,0.683h-3.663l-0.31,1.567h4.423c0.451,0,0.637,0.233,0.56,0.683l-0.25,1.242
					c-0.078,0.449-0.356,0.683-0.806,0.683h-7.466c-0.45,0-0.636-0.233-0.558-0.683L128.763,329.151z"/>
				<path fill="#FFFFFF" d="M147.587,332.596c-0.202,1.04-0.792,1.862-1.738,2.453c-0.947,0.589-2.095,0.884-3.477,0.884h-1.226
					l-0.527,2.717c-0.078,0.449-0.358,0.683-0.807,0.683h-2.36c-0.449,0-0.636-0.233-0.558-0.683l1.846-9.499
					c0.094-0.45,0.374-0.683,0.823-0.683h4.268c1.366,0,2.405,0.295,3.12,0.9c0.73,0.59,0.994,1.396,0.792,2.437L147.587,332.596z
					 M144.001,331.882c0.079-0.496-0.232-0.807-0.869-0.807h-1.04l-0.434,2.266h1.039c0.636,0,1.071-0.325,1.179-0.823
					L144.001,331.882z"/>
				<path fill="#FFFFFF" d="M148.02,339.332c-0.451,0-0.637-0.233-0.559-0.683l1.846-9.499c0.093-0.45,0.373-0.683,0.823-0.683
					h2.498c0.373,0,0.607,0.171,0.699,0.497l1.226,4.128l0.761-3.942c0.092-0.45,0.373-0.683,0.822-0.683h2.359
					c0.449,0,0.636,0.232,0.543,0.683l-1.847,9.499c-0.078,0.449-0.357,0.683-0.807,0.683h-2.531c-0.371,0-0.604-0.171-0.713-0.497
					l-1.195-4.113l-0.761,3.927c-0.076,0.449-0.356,0.683-0.807,0.683H148.02z"/>
			</g>
			<g id="iconos">
				<g>
					<path fill="#FFFFFF" d="M258.936,301.389c-0.731,0-1.453,0.045-2.165,0.122c-3.685-4.394-9.206-7.196-15.375-7.196
						s-11.692,2.802-15.375,7.196c-0.713-0.076-1.434-0.122-2.166-0.122c-4.728,0-9.072,1.653-12.505,4.4l4.486,3.012
						c2.084-1.322,4.507-2.156,7.114-2.313c0.302-0.018,0.6-0.046,0.904-0.046c1.537,0,3.02,0.234,4.417,0.666
						c0.876-1.575,2.03-2.974,3.391-4.137c2.624-2.241,6.02-3.603,9.732-3.603s7.107,1.362,9.731,3.603
						c1.362,1.163,2.515,2.562,3.391,4.137c1.399-0.432,2.881-0.666,4.418-0.666c0.306,0,0.604,0.028,0.904,0.046
						c7.857,0.472,14.11,6.994,14.11,14.968c0,6.965-4.775,12.821-11.218,14.509h-2.756v0.454v5.053v13.482h-6.328v5.054h6.328
						v8.085h-37.16v-8.085h25.946v-5.054h-25.946v-13.482v-5.053v-0.454h-2.758c-6.443-1.688-11.217-7.543-11.217-14.509
						c0-3.449,1.173-6.625,3.138-9.159l-4.19-2.813c-2.5,3.347-4.001,7.482-4.001,11.972c0,8.49,5.308,15.748,12.773,18.675v33.014
						h49.668v-13.138v-5.054v-14.822c7.465-2.927,12.773-10.185,12.773-18.675C279.003,310.392,270.001,301.389,258.936,301.389z"/>
				</g>
				<g>
					<path fill="#FFFFFF" d="M185.084,301.056c-3.369,0-6.381,1.927-8.629,5.093l4.208,2.825c1.33-1.821,2.909-2.866,4.421-2.866
						c3.605,0,7.622,5.88,7.622,14.318s-4.017,14.318-7.622,14.318c-3.606,0-7.622-5.88-7.622-14.318
						c0-2.552,0.371-4.863,0.984-6.856l-4.346-2.916c-1.073,2.855-1.692,6.179-1.692,9.772c0,9.513,4.271,17.219,10.106,18.988
						v34.071h5.053v-34.051c5.879-1.721,10.191-9.45,10.191-19.008C197.759,309.564,192.192,301.056,185.084,301.056z"/>
				</g>
				<g>
					<path fill="#FFFFFF" d="M305.489,328.84h-5.263v-28.124c0-1.396-1.131-2.527-2.526-2.527c-1.396,0-2.527,1.131-2.527,2.527
						v28.124h-5.052V305.77c0-1.396-1.133-2.527-2.528-2.527c-1.395,0-2.526,1.131-2.526,2.527v25.142c0,0,3.205,3.004,3.278,2.982
						h6.828v39.251h5.054v-39.251h7.039c0.088,0.028,3.277-2.922,3.277-2.922v-6.278l-5.054-3.392V328.84z"/>
					<path fill="#FFFFFF" d="M310.543,305.77c0-1.396-1.13-2.527-2.526-2.527s-2.527,1.131-2.527,2.527v9.447l5.054,3.392V305.77z"
						/>
				</g>
			</g>
			<g>
				<path fill="#FFFFFF" d="M323.139,329.731c0.086-0.413,0.343-0.626,0.756-0.626h6.721c0.414,0,0.585,0.213,0.499,0.626
					l-0.229,1.139c-0.07,0.413-0.327,0.626-0.74,0.626h-3.932l-0.312,1.638h3.445c0.413,0,0.585,0.213,0.5,0.626l-0.215,1.125
					c-0.086,0.413-0.342,0.625-0.756,0.625h-3.445l-0.569,2.934c-0.071,0.414-0.327,0.627-0.74,0.627h-2.164
					c-0.413,0-0.585-0.213-0.514-0.627L323.139,329.731z"/>
				<path fill="#FFFFFF" d="M330.929,335.342l0.5-2.506c0.454-2.393,2.277-3.902,5.397-3.902c3.26-0.014,4.314,1.624,3.873,3.902
					l-0.5,2.506c-0.441,2.308-2.106,3.902-5.382,3.902C331.585,339.245,330.501,337.635,330.929,335.342z M334.404,335.058
					c-0.229,1.267-0.028,1.794,0.869,1.794c0.911,0,1.324-0.499,1.565-1.794l0.386-1.937c0.271-1.254,0.043-1.794-0.883-1.794
					c-0.898,0-1.326,0.541-1.553,1.794L334.404,335.058z"/>
				<path fill="#FFFFFF" d="M341.397,335.342l0.499-2.506c0.456-2.393,2.278-3.902,5.396-3.902c3.262-0.014,4.316,1.624,3.875,3.902
					l-0.499,2.506c-0.441,2.308-2.107,3.902-5.384,3.902C342.054,339.245,340.971,337.635,341.397,335.342z M344.874,335.058
					c-0.229,1.267-0.03,1.794,0.867,1.794c0.912,0,1.324-0.499,1.566-1.794l0.384-1.937c0.271-1.254,0.043-1.794-0.883-1.794
					c-0.896,0-1.323,0.541-1.551,1.794L344.874,335.058z"/>
				<path fill="#FFFFFF" d="M360.708,335.314c-0.411,2.136-2.163,3.76-6.138,3.76h-2.648c-0.413,0-0.583-0.213-0.512-0.627
					l1.694-8.715c0.086-0.413,0.342-0.626,0.753-0.626h2.936c3.846,0.014,4.813,1.623,4.386,3.746L360.708,335.314z
					 M357.719,333.135c0.212-1.14-0.085-1.638-1.282-1.638h-0.256l-1.012,5.184h0.256c1.125,0,1.695-0.512,1.924-1.637
					L357.719,333.135z"/>
			</g>
		</g>
		<text transform="matrix(1 0 0 1 88.7876 548.085)" display="inline"><tspan x="0" y="0" fill="#FFFFFF" font-family="'JihoSoft-Light'" font-size="30">Encuentra donde comer</tspan><tspan x="17.16" y="36" fill="#FFFFFF" font-family="'JihoSoft-Light'" font-size="30">donde sea que estes.</tspan></text>
	</g>
	<linearGradient id="SVGID_1_" gradientUnits="userSpaceOnUse" x1="239.9995" y1="-204.0527" x2="239.9995" y2="569.9573">
		<stop  offset="0" style="stop-color:#FFFFFF;stop-opacity:0.5"/>
		<stop  offset="1" style="stop-color:#D85C00"/>
	</linearGradient>
	<rect fill="url(#SVGID_1_)" stroke="#000000" stroke-miterlimit="10" width="480" height="800"/>
	<linearGradient id="SVGID_2_" gradientUnits="userSpaceOnUse" x1="239.9995" y1="-148.0527" x2="239.9995" y2="625.9573">
		<stop  offset="0" style="stop-color:#FFFFFF;stop-opacity:0.5"/>
		<stop  offset="0.4971" style="stop-color:#6E757B;stop-opacity:0.7486"/>
		<stop  offset="0.7972" style="stop-color:#16212B"/>
	</linearGradient>
	<rect fill="url(#SVGID_2_)" stroke="#000000" stroke-miterlimit="10" width="480" height="800"/>
	
		<rect x="-304.811" y="478.006" display="inline" fill="#151B58" stroke="#000000" stroke-miterlimit="10" width="108.108" height="100"/>
	
		<rect x="-304.811" y="132.062" display="inline" fill="#D85C00" stroke="#000000" stroke-miterlimit="10" width="108.108" height="100"/>
	<rect y="729" display="inline" fill="#D85C00" width="241.799" height="71"/>
	<rect x="240.373" y="729" display="inline" fill="#D85C00" width="241.799" height="71"/>
	<text transform="matrix(1 0 0 1 350 89.9531)" display="inline" fill="#FFFFFF" font-family="'JihoSoft-Black'" font-size="30">Omitir</text>
	
		<text transform="matrix(1 0 0 1 302.1182 774.0576)" display="inline" fill="#FFFFFF" font-family="'JihoSoft-Light'" font-size="30">Siguiente</text>
	
		<text transform="matrix(1 0 0 1 71.8584 774.0576)" display="inline" fill="#FFFFFF" font-family="'JihoSoft-Light'" font-size="30">Atrás</text>
	<circle display="inline" fill="#FFFFFF" cx="204.795" cy="702" r="7.5"/>
	<circle display="inline" opacity="0.5" fill="#FFFFFF" cx="229.057" cy="702" r="7.5"/>
	<circle display="inline" opacity="0.5" fill="#FFFFFF" cx="253.944" cy="702" r="7.5"/>
	<circle display="inline" opacity="0.5" fill="#FFFFFF" cx="275.996" cy="702" r="7.5"/>
	<g display="inline">
		<circle fill="#16212B" stroke="#000000" stroke-miterlimit="10" cx="204.795" cy="702" r="7.5"/>
		<circle opacity="0.5" fill="#16212B" stroke="#000000" stroke-miterlimit="10" cx="229.057" cy="702" r="7.5"/>
		<circle opacity="0.5" fill="#16212B" stroke="#000000" stroke-miterlimit="10" cx="253.944" cy="702" r="7.5"/>
		<circle opacity="0.5" fill="#16212B" stroke="#000000" stroke-miterlimit="10" cx="275.996" cy="702" r="7.5"/>
	</g>
	<rect display="inline" fill="#D85C00" width="482.172" height="43.108"/>
	
		<text transform="matrix(1 0 0 1 165.1689 31.6084)" display="inline" fill="#FFFFFF" font-family="'JihoSoft-Black'" font-size="25">BIENVENIDO</text>
</g>
<g id="Capa_3" display="none">
	<g>
		<g display="inline">
			<g>
				<g>
					<path fill="#D85C00" d="M261.102,244.775c-0.865,0-1.719,0.042-2.559,0.114c-4.351-4.207-10.884-6.89-18.179-6.89
						s-13.826,2.683-18.177,6.89c-0.841-0.072-1.696-0.114-2.564-0.114c-5.588,0-10.723,1.582-14.783,4.211l5.304,2.885
						c2.464-1.266,5.333-2.066,8.412-2.216c0.36-0.018,0.71-0.042,1.068-0.042c1.818,0,3.574,0.223,5.227,0.638
						c1.034-1.509,2.398-2.851,4.012-3.964c3.102-2.146,7.114-3.445,11.505-3.445s8.405,1.299,11.506,3.445
						c1.61,1.114,2.977,2.456,4.01,3.964c1.652-0.415,3.406-0.638,5.223-0.638c0.361,0,0.715,0.024,1.066,0.042
						c9.294,0.453,16.688,6.698,16.688,14.333c0,6.67-5.647,12.278-13.263,13.893h-3.259v0.438v4.837v12.91h-7.483v4.84h7.483v7.74
						h-43.941v-7.74h30.677v-4.84h-30.677v-12.908v-4.838v-0.436h-3.259c-7.622-1.616-13.264-7.223-13.264-13.893
						c0-3.304,1.385-6.343,3.713-8.771l-4.959-2.695c-2.957,3.208-4.729,7.167-4.729,11.465c0,8.131,6.274,15.079,15.102,17.88
						v31.619h58.729v-12.583v-4.84v-14.196c8.827-2.801,15.102-9.749,15.102-17.88C284.831,253.396,274.185,244.775,261.102,244.775
						z"/>
				</g>
				<g>
					<path fill="none" d="M213.143,336.927c0,7.135,2.669,13.876,7.51,19.073l5.16,5.501l-6.944,2.757
						c-20.583,8.211-35.519,32.189-35.519,56.36c0,0.057,0.002,2.838,0.002,5.034h111.176c0-2.196,0-5.695,0-5.751
						c0-23.488-13.647-45.106-33.999-53.933l-6.854-2.931l5.313-5.346c5.043-5.105,8.056-12.62,8.056-20.292
						c0-9.422-4.499-17.24-11.362-22.734h-31.284C217.595,316.862,213.143,327.719,213.143,336.927z"/>
					<path fill="#D85C00" d="M270.825,359.609c4.24-6.419,6.409-14.245,6.409-22.183c0-8.583-3.022-17.269-7.638-22.763h-13.914
						c6.863,5.494,11.366,13.313,11.366,22.734c0,7.67-3.012,15.239-8.055,20.345l-5.309,5.32l6.845,2.917
						c20.352,8.827,33.999,30.435,33.999,53.922c0,0.056,0,3.555,0,5.751H183.354c0-2.196-0.001-4.986-0.001-5.042
						c0-24.17,14.936-47.814,35.517-56.028l6.945-2.941l-5.161-5.611c-4.841-5.196-7.509-11.927-7.509-19.062
						c-0.001-9.208,4.451-20.106,11.254-22.304h-13.925c-4.542,5.494-7.263,13.929-7.263,22.328c0,7.435,2.108,14.598,6.028,20.724
						c-21.371,11.532-35.816,36.409-35.816,62.683c0,0.114,0.004,9.054,0.004,9.736l0.003,5.408h131.063l1.028-5.253
						c0-0.68,0-10.082,0-10.194C305.52,394.885,291.504,371.387,270.825,359.609z"/>
				</g>
			</g>
			<g>
				<path fill="#16212B" stroke="#000000" stroke-miterlimit="10" d="M200.99,252.724l4.595,2.498
					c-2.328,2.427-3.713,5.466-3.713,8.771c0,6.669,5.645,12.277,13.265,13.893h3.259v0.436v4.838v12.908h30.678v4.84h-30.678v7.74
					h43.942v-7.74h-7.483v-4.84h7.483v-12.91v-4.837v-0.438h3.259c7.615-1.614,13.261-7.222,13.261-13.893
					c0-7.635-7.394-13.88-16.687-14.333c-0.354-0.018-0.705-0.042-1.069-0.042c-1.813,0-3.567,0.223-5.221,0.638
					c-1.034-1.509-2.398-2.851-4.011-3.964c-3.101-2.146-7.113-3.445-11.506-3.445c-4.389,0-8.402,1.299-11.505,3.445
					c-1.611,1.114-2.976,2.456-4.009,3.964c-1.652-0.415-3.409-0.638-5.227-0.638c-0.358,0-0.709,0.024-1.069,0.042
					c-3.079,0.15-5.947,0.95-8.412,2.216l-5.105-2.528l0,0C202.473,250.77,201.136,252.526,200.99,252.724z"/>
				<path fill="#16212B" stroke="#000000" stroke-miterlimit="10" d="M220.651,356c-4.534-4.869-7.164-11.093-7.477-17.727
					c0.305,6.647,2.934,12.877,7.479,17.755l5.066,5.509l0.093-0.037L220.651,356z"/>
				<path fill="#16212B" stroke="#000000" stroke-miterlimit="10" d="M213.144,336.968c0,0.438,0.009,0.873,0.03,1.306
					c0.313,6.634,2.943,12.857,7.477,17.727l5.161,5.501l-0.093,0.037l0.094,0.103l-6.945,2.941
					c-20.581,8.214-35.517,31.858-35.517,56.028c0,0.056,0.001,2.846,0.001,5.042h111.176c0-2.196,0-5.695,0-5.751
					c0-23.488-13.649-45.096-34.001-53.922l-6.843-2.917l0.015-0.015l-0.023-0.01l5.313-5.346c5.043-5.105,8.055-12.62,8.055-20.292
					c0-9.422-4.498-17.24-11.361-22.734h-31.284c-0.497,0.16-0.978,0.372-1.449,0.62
					C216.97,318.447,213.142,328.432,213.144,336.968z"/>
				<path fill="#D85C00" d="M213.142,336.927c0,0.451,0.011,0.9,0.032,1.347c-0.021-0.433-0.03-0.869-0.03-1.306
					c-0.002-8.536,3.826-18.521,9.806-21.683C216.97,318.441,213.142,328.392,213.142,336.927z"/>
				<path fill="#D85C00" d="M260.528,365.979c20.352,8.827,34.001,30.435,34.001,53.922c0-23.488-13.649-45.106-34.001-53.933
					l-6.828-2.921l-0.015,0.015L260.528,365.979z"/>
				<path d="M200.99,252.724l-0.363-0.197l0,0l0.334,0.236C200.963,252.761,200.981,252.735,200.99,252.724z"/>
			</g>
		</g>
		<text transform="matrix(1 0 0 1 131.3643 538.7588)" display="inline"><tspan x="0" y="0" fill="#16212B" stroke="#000000" stroke-miterlimit="10" font-family="'JihoSoft-Light'" font-size="30">Mira los mejores</tspan><tspan x="-35.43" y="36" fill="#16212B" stroke="#000000" stroke-miterlimit="10" font-family="'JihoSoft-Light'" font-size="30">restaurantes de Quito</tspan></text>
	</g>
	<g>
		<text transform="matrix(1 0 0 1 129.207 541.2559)" display="inline"><tspan x="0" y="0" font-family="'JihoSoft-Light'" font-size="30">Revisa los menús</tspan><tspan x="-57.39" y="36" font-family="'JihoSoft-Light'" font-size="30">y decide que vas a querer.</tspan></text>
		<g display="inline">
			<path fill="#D85C00" d="M305.479,433.17c0,2.596-1.94,4.699-4.33,4.699H178.113c-2.392,0-4.33-2.104-4.33-4.699V245.026
				c0-2.596,1.94-4.7,4.33-4.7h123.033c2.392,0,4.331,2.104,4.331,4.7L305.479,433.17L305.479,433.17z M181.466,426.895h116.331
				V249.105H181.466V426.895z"/>
			<rect x="181.466" y="249.105" fill="#16212B" stroke="#000000" stroke-miterlimit="10" width="116.331" height="177.789"/>
			<g>
				<path fill="#D85C00" stroke="#000000" stroke-miterlimit="10" d="M220.883,271.194c0.74,0,1.125,0.418,1.125,1.223v16.991
					c0,0.806-0.384,1.221-1.125,1.221h-3.915c-0.741,0-1.125-0.415-1.125-1.221v-7.83l-1.356,2.64
					c-0.306,0.554-0.741,0.831-1.331,0.831h-2.84c-0.589,0-1.049-0.276-1.331-0.831l-1.331-2.611v7.801
					c0,0.806-0.383,1.221-1.125,1.221h-3.888c-0.743,0-1.125-0.415-1.125-1.221v-16.991c0-0.805,0.383-1.223,1.125-1.223h4.119
					c0.588,0,1.049,0.279,1.328,0.86l3.685,7.22l3.738-7.22c0.28-0.581,0.738-0.86,1.331-0.86H220.883z"/>
				<path fill="#D85C00" stroke="#000000" stroke-miterlimit="10" d="M225.042,272.417c0-0.805,0.385-1.223,1.125-1.223h12.076
					c0.742,0,1.125,0.418,1.125,1.223v2.22c0,0.805-0.383,1.222-1.125,1.222h-7.059v2.637h6.036c0.744,0,1.125,0.417,1.125,1.224
					v2.22c0,0.805-0.381,1.221-1.125,1.221h-6.036v2.804h7.291c0.742,0,1.125,0.416,1.125,1.222v2.22
					c0,0.807-0.383,1.222-1.125,1.222h-12.308c-0.74,0-1.125-0.415-1.125-1.222V272.417z"/>
				<path fill="#D85C00" stroke="#000000" stroke-miterlimit="10" d="M243.02,290.629c-0.743,0-1.126-0.415-1.126-1.221v-16.991
					c0-0.805,0.385-1.223,1.126-1.223h4.12c0.615,0,1.049,0.306,1.328,0.889l3.328,7.386v-7.052c0-0.805,0.388-1.223,1.127-1.223
					h3.886c0.744,0,1.128,0.418,1.128,1.223v16.991c0,0.806-0.386,1.221-1.128,1.221h-4.169c-0.616,0-1.048-0.304-1.331-0.889
					l-3.273-7.355v7.023c0,0.806-0.386,1.221-1.126,1.221H243.02z"/>
				<path fill="#D85C00" stroke="#000000" stroke-miterlimit="10" d="M260.995,283.329v-10.912c0-0.805,0.386-1.223,1.128-1.223
					h3.89c0.741,0,1.125,0.418,1.125,1.223v10.772c0,2.083,0.562,3.054,1.893,3.054c1.357,0,1.972-0.971,1.972-3.054v-10.772
					c0-0.805,0.385-1.223,1.124-1.223h3.889c0.744,0,1.128,0.418,1.128,1.223v10.912c0,5.552-3.455,7.635-8.086,7.635
					C264.63,290.964,260.995,288.881,260.995,283.329z M271.461,265.448c0.488,0.58,0.438,1.25-0.178,1.722l-2.609,2.027
					c-0.563,0.441-1.101,0.386-1.587-0.168l-0.435-0.472c-0.485-0.583-0.46-1.222,0.076-1.748l2.405-2.333
					c0.563-0.554,1.098-0.525,1.586,0.085L271.461,265.448z"/>
			</g>
			<path fill="#D85C00" stroke="#000000" stroke-miterlimit="10" d="M280.736,337.542c-2.422-3.07-4.649-4.552-7.005-4.669
				c-3.123-0.181-5.434,2.251-7.45,4.383c-1.194,1.257-2.423,2.551-3.745,3.289c-0.876-0.232-2.066-1.09-3.134-1.86
				c-0.721-0.526-1.473-1.045-2.254-1.508c-2.305-2.813-4.443-4.193-6.7-4.304c-3.129-0.181-5.436,2.251-7.449,4.383
				c-1.172,1.236-2.38,2.501-3.676,3.241c-1.295-0.74-2.504-2.005-3.674-3.241c-2.017-2.132-4.32-4.564-7.453-4.383
				c-2.256,0.111-4.393,1.492-6.7,4.304c-0.78,0.463-1.531,0.983-2.255,1.508c-1.066,0.77-2.252,1.628-3.133,1.86
				c-1.32-0.738-2.55-2.031-3.743-3.289c-2.019-2.132-4.33-4.564-7.452-4.383c-2.354,0.118-4.582,1.599-7.004,4.669
				c-0.878,1.111-0.763,2.791,0.266,3.749c1.029,0.954,2.576,0.825,3.457-0.291c1.398-1.771,2.646-2.774,3.503-2.814
				c1.046-0.043,2.384,1.375,3.813,2.881c1.603,1.695,3.425,3.493,5.841,4.544l0.438,0.071h0.476c2.375,0,4.437-1.372,6.259-2.694
				c0.776-0.562,1.507-1.029,2.189-1.397c0.027-0.014,0.049-0.002,0.075-0.022c0.116-0.066,0.23-0.122,0.334-0.214
				c0.132-0.114,0.252-0.229,0.36-0.365c1.4-1.77,2.642-2.766,3.503-2.808c1.021-0.045,2.379,1.375,3.809,2.883
				c1.607,1.693,3.43,3.498,5.84,4.546l0.44,0.071h0.469c0.161,0,0.302-0.024,0.448-0.035c0.082,0.007,0.145,0.035,0.234,0.035
				h0.472l0.439-0.071c1.52-0.66,2.788-1.632,3.931-2.667c0.048-0.034,0.09-0.077,0.138-0.111c0.034-0.023,0.061-0.078,0.094-0.109
				c0.586-0.544,1.151-1.101,1.679-1.657c1.43-1.509,2.787-2.932,3.811-2.887c0.858,0.041,2.104,1.035,3.5,2.807
				c0.11,0.134,0.228,0.249,0.36,0.361c0.104,0.093,0.219,0.145,0.335,0.209c0.026,0.019,0.047-0.003,0.075,0.011
				c0.681,0.37,1.412,0.857,2.187,1.419c1.822,1.32,3.886,2.693,6.262,2.693h0.473l0.435-0.069c2.417-1.051,4.238-2.83,5.842-4.525
				c1.434-1.505,2.769-2.933,3.813-2.89c0.859,0.04,2.105,1.036,3.506,2.811c0.882,1.113,2.427,1.241,3.455,0.286
				C281.497,340.335,281.616,338.654,280.736,337.542z"/>
			<path fill="#D85C00" stroke="#000000" stroke-miterlimit="10" d="M280.736,365.739c-2.422-3.069-4.649-4.55-7.005-4.668
				c-3.123-0.18-5.434,2.252-7.45,4.383c-1.194,1.258-2.423,2.551-3.745,3.288c-0.876-0.232-2.066-1.089-3.134-1.858
				c-0.721-0.526-1.473-1.045-2.254-1.509c-2.305-2.812-4.443-4.192-6.7-4.304c-3.129-0.18-5.436,2.252-7.449,4.383
				c-1.172,1.237-2.38,2.501-3.676,3.241c-1.295-0.74-2.504-2.004-3.674-3.241c-2.017-2.131-4.32-4.563-7.453-4.383
				c-2.256,0.112-4.393,1.492-6.7,4.304c-0.78,0.464-1.531,0.983-2.255,1.509c-1.066,0.769-2.252,1.626-3.133,1.858
				c-1.32-0.737-2.55-2.03-3.743-3.288c-2.019-2.131-4.33-4.563-7.452-4.383c-2.354,0.117-4.582,1.599-7.004,4.668
				c-0.878,1.116-0.763,2.791,0.266,3.751c1.029,0.954,2.576,0.823,3.457-0.29c1.398-1.773,2.646-2.776,3.503-2.816
				c1.046-0.043,2.384,1.375,3.813,2.882c1.603,1.695,3.425,4.21,5.841,5.261l0.438,0.787h0.476c2.375,0,4.437-2.088,6.259-3.408
				c0.776-0.564,1.507-1.389,2.189-1.758c0.027-0.015,0.049-0.185,0.075-0.204c0.116-0.066,0.23-0.21,0.334-0.302
				c0.132-0.114,0.252-0.273,0.36-0.409c1.4-1.771,2.642-2.789,3.503-2.832c1.021-0.043,2.379,1.366,3.809,2.875
				c1.607,1.692,3.43,4.206,5.84,5.255l0.44,0.782h0.469c0.161,0,0.302-0.023,0.448-0.034c0.082,0.006,0.145,0.034,0.234,0.034
				h0.472l0.439-0.787c1.52-0.663,2.788-1.994,3.931-3.024c0.048-0.035,0.09-0.26,0.138-0.295c0.034-0.022,0.061-0.166,0.094-0.196
				c0.586-0.544,1.151-1.145,1.679-1.701c1.43-1.509,2.787-2.953,3.811-2.91c0.858,0.042,2.104,1.024,3.5,2.796
				c0.11,0.135,0.228,0.243,0.36,0.355c0.104,0.092,0.219,0.14,0.335,0.206c0.026,0.02,0.047-0.004,0.075,0.013
				c0.681,0.37,1.412,1.573,2.187,2.135c1.822,1.32,3.886,3.407,6.262,3.407h0.473l0.435-0.787c2.417-1.052,4.238-3.188,5.842-4.883
				c1.434-1.504,2.769-3.114,3.813-3.071c0.859,0.041,2.105,0.951,3.506,2.721c0.882,1.115,2.427,1.198,3.455,0.242
				C281.497,368.579,281.616,366.854,280.736,365.739z"/>
			<path fill="#D85C00" stroke="#000000" stroke-miterlimit="10" d="M280.736,392.059c-2.422-3.07-4.649-4.553-7.005-4.669
				c-3.123-0.181-5.434,2.253-7.45,4.384c-1.194,1.259-2.423,2.553-3.745,3.287c-0.876-0.229-2.066-1.09-3.134-1.859
				c-0.721-0.524-1.473-1.044-2.254-1.508c-2.305-2.813-4.443-4.189-6.7-4.304c-3.129-0.181-5.436,2.253-7.449,4.384
				c-1.172,1.234-2.38,2.502-3.676,3.24c-1.295-0.738-2.504-2.006-3.674-3.24c-2.017-2.131-4.32-4.564-7.453-4.384
				c-2.256,0.114-4.393,1.49-6.7,4.304c-0.78,0.464-1.531,0.983-2.255,1.508c-1.066,0.77-2.252,1.631-3.133,1.859
				c-1.32-0.734-2.55-2.031-3.743-3.287c-2.019-2.131-4.33-4.564-7.452-4.384c-2.354,0.116-4.582,1.599-7.004,4.669
				c-0.878,1.114-0.763,2.791,0.266,3.749c1.029,0.955,2.576,0.825,3.457-0.29c1.398-1.77,2.646-2.773,3.503-2.814
				c1.046-0.042,2.384,1.375,3.813,2.882c1.603,1.695,3.425,3.672,5.841,4.722l0.438,0.249h0.476c2.375,0,4.437-1.55,6.259-2.873
				c0.776-0.562,1.507-1.116,2.189-1.484c0.027-0.016,0.049-0.05,0.075-0.069c0.116-0.066,0.23-0.144,0.334-0.235
				c0.132-0.113,0.252-0.24,0.36-0.376c1.4-1.771,2.642-2.772,3.503-2.815c1.021-0.043,2.379,1.376,3.809,2.885
				c1.607,1.693,3.43,3.671,5.84,4.72l0.44,0.249h0.469c0.161,0,0.302-0.024,0.448-0.035c0.082,0.007,0.145,0.035,0.234,0.035h0.472
				l0.439-0.249c1.52-0.661,2.788-1.724,3.931-2.754c0.048-0.036,0.09-0.125,0.138-0.16c0.034-0.021,0.061-0.098,0.094-0.129
				c0.586-0.543,1.151-1.111,1.679-1.668c1.43-1.509,2.787-2.938,3.811-2.896c0.858,0.044,2.104,1.036,3.5,2.808
				c0.11,0.135,0.228,0.247,0.36,0.36c0.104,0.092,0.219,0.141,0.335,0.206c0.026,0.019,0.047-0.003,0.075,0.013
				c0.681,0.368,1.412,1.034,2.187,1.596c1.822,1.321,3.886,2.871,6.262,2.871h0.473l0.435-0.249
				c2.417-1.051,4.238-2.917,5.842-4.613c1.434-1.505,2.769-2.979,3.813-2.936c0.859,0.04,2.105,1.018,3.506,2.788
				c0.882,1.115,2.427,1.23,3.455,0.276C281.497,394.862,281.616,393.173,280.736,392.059z"/>
		</g>
	</g>
	<g display="inline">
		<text transform="matrix(1 0 0 1 55.1509 541.085)"><tspan x="0" y="0" font-family="'JihoSoft-Light'" font-size="30">Aprovecha diferentes ofertas</tspan><tspan x="11.79" y="36" font-family="'JihoSoft-Light'" font-size="30">de comidas extraordinarias.</tspan></text>
		<rect x="211.364" y="283.758" fill="#16212B" stroke="#000000" stroke-miterlimit="10" width="34.256" height="41.783"/>
		<rect x="246.712" y="352.72" fill="#16212B" stroke="#000000" stroke-miterlimit="10" width="33.775" height="37.425"/>
		<g>
			<path fill="#D85C00" stroke="#000000" stroke-miterlimit="10" d="M240.164,435.744c-4.803,0-7.105-2.835-7.105-8.496v-10.662
				c-18.396-1.082-36.174-6.735-53.521-16.538c-5.229-2.821-6.481-7.176-3.35-13.048l8.368-15.672
				c2.921-5.448,7.106-6.522,12.753-3.486c12.33,7.189,24.25,11.542,35.75,13.06v-26.109l-24.253-10.453
				c-23.418-9.785-32.201-21.102-32.201-41.782c0-26.76,21.329-41.78,56.454-42.859v-11.317c0-5.446,2.303-8.055,7.106-8.055h2.09
				c4.81,0,7.118,1.959,7.118,8.055v11.744c14.003,1.745,28.635,6.539,43.483,14.577c5.642,3.262,6.69,7.616,3.551,13.278
				l-8.782,15.229c-2.923,5.235-7.11,6.311-12.545,3.279c-9.408-5.005-17.982-8.496-25.707-10.013v23.062l21.944,9.359
				c24.045,10.228,33.453,22.635,33.453,43.298c0,26.338-19.655,42.432-55.397,44.394v10.662c0,5.888-2.934,8.495-7.118,8.495
				L240.164,435.744L240.164,435.744z M233.059,312.571v-17.399c-4.81,0.862-10.74,4.124-10.74,7.827
				C222.318,306.701,228.249,309.96,233.059,312.571z M249.37,362.195v18.055c4.175-1.518,9.686-4.353,9.686-8.922
				C259.056,368.068,253.545,365.017,249.37,362.195z"/>
		</g>
	</g>
	<g display="inline">
		<g id="Muertos_2_">
			<path fill="#16212B" d="M30.107,53.964c0.74,0,1.123,0.383,1.123,1.123v15.621c0,0.74-0.383,1.123-1.123,1.123h-3.905
				c-0.74,0-1.123-0.383-1.123-1.123V63.51l-1.353,2.424c-0.307,0.511-0.74,0.766-1.328,0.766h-2.833
				c-0.587,0-1.046-0.255-1.327-0.766l-1.327-2.399v7.172c0,0.74-0.383,1.123-1.123,1.123h-3.879c-0.74,0-1.124-0.383-1.124-1.123
				V55.087c0-0.74,0.383-1.123,1.124-1.123h4.109c0.586,0,1.046,0.255,1.327,0.792l3.675,6.636l3.727-6.636
				c0.281-0.536,0.74-0.792,1.327-0.792H30.107z"/>
			<path fill="#16212B" d="M34.264,65.118V55.087c0-0.74,0.383-1.123,1.123-1.123h3.88c0.74,0,1.123,0.383,1.123,1.123v9.903
				c0,1.915,0.561,2.808,1.888,2.808c1.353,0,1.965-0.893,1.965-2.808v-9.903c0-0.74,0.383-1.123,1.123-1.123h3.88
				c0.74,0,1.123,0.383,1.123,1.123v10.031c0,5.104-3.446,7.019-8.065,7.019C37.889,72.136,34.264,70.222,34.264,65.118z"/>
			<path fill="#16212B" d="M53.43,55.087c0-0.74,0.383-1.123,1.124-1.123H66.6c0.74,0,1.123,0.383,1.123,1.123v2.042
				c0,0.74-0.383,1.123-1.123,1.123h-7.044v2.425h6.024c0.74,0,1.123,0.383,1.123,1.123v2.042c0,0.74-0.383,1.123-1.123,1.123
				h-6.024v2.578h7.274c0.74,0,1.124,0.383,1.124,1.124v2.042c0,0.74-0.383,1.123-1.124,1.123H54.553
				c-0.74,0-1.124-0.383-1.124-1.123V55.087z"/>
			<path fill="#16212B" d="M85.893,60.498c0,1.94-0.995,3.471-2.654,4.39l3.549,5.59c0.484,0.791,0.152,1.353-0.74,1.353h-4.008
				c-0.587,0-1.021-0.255-1.328-0.766l-3.037-5.079h-1.302v4.722c0,0.74-0.382,1.123-1.122,1.123h-3.88
				c-0.74,0-1.123-0.383-1.123-1.123V55.087c0-0.74,0.383-1.123,1.123-1.123h7.019c2.246,0,4.059,0.485,5.438,1.48
				c1.376,0.97,2.066,2.297,2.066,4.007V60.498z M79.793,59.579c0-0.817-0.638-1.327-1.684-1.327h-1.736v3.471h1.736
				c1.046,0,1.684-0.536,1.684-1.353V59.579z"/>
			<path fill="#16212B" d="M92.35,58.252h-4.084c-0.74,0-1.124-0.383-1.124-1.123v-2.042c0-0.74,0.384-1.123,1.124-1.123h14.293
				c0.74,0,1.124,0.383,1.124,1.123v2.042c0,0.74-0.383,1.123-1.124,1.123h-4.083v12.456c0,0.74-0.383,1.123-1.124,1.123h-3.879
				c-0.74,0-1.122-0.383-1.122-1.123V58.252z"/>
			<path fill="#16212B" d="M103.68,65.144v-4.493c0-4.083,2.5-6.993,8.32-6.993c5.82,0,8.296,2.91,8.296,6.993v4.493
				c0,4.109-2.476,6.993-8.296,6.993C106.18,72.136,103.68,69.278,103.68,65.144z M109.805,64.633c0,2.271,0.561,3.216,2.169,3.216
				c1.633,0,2.196-0.894,2.196-3.216v-3.471c0-2.323-0.563-3.216-2.196-3.216c-1.608,0-2.169,0.97-2.169,3.216V64.633z"/>
			<path fill="#16212B" d="M126.342,63.612c-2.858-1.225-3.93-2.527-3.93-4.9c0-3.267,2.858-5.054,7.478-5.054
				c2.196,0,4.442,0.587,6.739,1.787c0.638,0.332,0.79,0.919,0.407,1.557l-1.071,1.787c-0.357,0.612-0.869,0.74-1.558,0.383
				c-1.634-0.894-3.165-1.353-4.619-1.353c-0.817,0-1.252,0.408-1.252,0.944c0,0.511,0.409,0.919,1.201,1.251l4.237,1.787
				c2.884,1.225,4.083,2.705,4.083,5.079c0,3.343-2.806,5.257-7.81,5.257c-2.526,0-5.027-0.664-7.452-1.991
				c-0.638-0.332-0.817-0.918-0.434-1.531l1.021-1.838c0.358-0.638,0.868-0.791,1.557-0.408c1.94,1.072,3.701,1.608,5.258,1.608
				c1.124,0,1.736-0.459,1.736-1.2c0-0.536-0.409-0.944-1.353-1.353L126.342,63.612z"/>
		</g>
		<g id="de_hambre_4_">
			<g>
				<g>
					<path fill="#16212B" d="M37.225,111.525c-1.612,1.757-4.412,1.821-8.043-2.931c-0.968-1.268-1.44-1.921-2.354-3.275
						c-0.356-0.527-0.342-0.942,0.033-1.203c3.167-2.2,4.749-3.301,7.916-5.5c0.375-0.261,0.715-0.168,1.004,0.259
						c0.822,1.215,1.247,1.802,2.122,2.932c2.856,3.689,2.773,5.958,1.183,7.692C38.341,110.311,37.969,110.715,37.225,111.525z
						 M35.901,106.45c0.932-0.857,1.006-1.603,0.062-2.816c-0.081-0.104-0.122-0.156-0.202-0.26
						c-1.765,1.476-2.647,2.212-4.412,3.688c0.09,0.117,0.135,0.175,0.226,0.291c0.964,1.239,1.843,1.381,2.764,0.534
						C34.963,107.312,35.276,107.024,35.901,106.45z"/>
					<path fill="#16212B" d="M42.547,108.031c0.301-0.35,0.634-0.358,0.981-0.033c2.263,2.116,3.454,3.062,5.913,4.729
						c0.378,0.256,0.454,0.592,0.221,0.997c-0.258,0.446-0.386,0.669-0.644,1.115c-0.233,0.404-0.563,0.479-0.962,0.209
						c-1.519-1.029-2.262-1.585-3.713-2.776c-0.358,0.492-0.538,0.738-0.896,1.23c1.278,1.049,1.93,1.542,3.26,2.469
						c0.408,0.285,0.498,0.634,0.259,1.035c-0.263,0.442-0.394,0.664-0.657,1.106c-0.239,0.401-0.587,0.458-1.017,0.159
						c-1.398-0.975-2.084-1.494-3.428-2.597c-0.38,0.523-0.571,0.784-0.951,1.307c1.67,1.371,2.529,2.009,4.279,3.188
						c0.445,0.3,0.557,0.659,0.325,1.064c-0.256,0.447-0.384,0.669-0.64,1.116c-0.232,0.405-0.596,0.459-1.063,0.146
						c-3.095-2.083-4.593-3.269-7.437-5.928c-0.429-0.401-0.491-0.794-0.189-1.145C38.733,112.466,40.004,110.988,42.547,108.031z"
						/>
					<path fill="#16212B" d="M53.967,116.231c0.192-0.428,0.498-0.542,0.896-0.346c0.834,0.413,1.255,0.607,2.103,0.973
						c0.404,0.174,0.532,0.488,0.371,0.931c-0.447,1.234-0.67,1.852-1.117,3.086c0.83,0.343,1.247,0.505,2.086,0.808
						c0.395-1.254,0.593-1.881,0.988-3.136c0.142-0.45,0.428-0.605,0.84-0.463c0.858,0.294,1.289,0.431,2.156,0.68
						c0.417,0.119,0.576,0.414,0.467,0.874c-0.919,3.888-1.379,5.833-2.299,9.722c-0.109,0.46-0.431,0.628-0.944,0.48
						c-1.069-0.307-1.601-0.475-2.659-0.838c-0.508-0.174-0.696-0.501-0.554-0.952c0.474-1.503,0.71-2.255,1.184-3.758
						c-0.883-0.318-1.323-0.489-2.196-0.85c-0.536,1.479-0.804,2.219-1.339,3.698c-0.161,0.443-0.502,0.567-1.001,0.352
						c-1.045-0.451-1.563-0.691-2.592-1.199c-0.491-0.243-0.643-0.595-0.451-1.023C51.531,121.655,52.342,119.846,53.967,116.231z"
						/>
					<path fill="#16212B" d="M69.835,120.221c0.337,0.035,0.588,0.205,0.759,0.515c0.557,0.954,0.851,1.427,1.466,2.361
						c0.542,0.813,0.921,1.536,1.124,2.153c0.205,0.623,0.322,1.432,0.309,2.431c-0.018,1.402-0.027,2.104-0.044,3.506
						c-0.006,0.475-0.281,0.718-0.808,0.702c-1.097-0.033-1.644-0.063-2.738-0.152c-0.525-0.043-0.778-0.315-0.738-0.788
						c0.066-0.783,0.101-1.175,0.167-1.958c-1.059-0.103-1.589-0.168-2.644-0.326c-0.102,0.779-0.152,1.168-0.254,1.947
						c-0.062,0.471-0.364,0.675-0.886,0.589c-1.095-0.181-1.641-0.286-2.729-0.524c-0.519-0.114-0.737-0.418-0.642-0.882
						c0.281-1.37,0.422-2.054,0.704-3.424c0.2-0.976,0.477-1.732,0.805-2.294c0.328-0.562,0.856-1.162,1.559-1.821
						c0.806-0.758,1.197-1.146,1.949-1.938c0.233-0.26,0.515-0.365,0.837-0.318C68.752,120.103,69.113,120.147,69.835,120.221z
						 M68.539,123.698c-0.189,0.214-0.285,0.322-0.478,0.534c-0.406,0.441-0.724,1.005-0.934,1.718
						c0.939,0.139,1.41,0.198,2.353,0.291c-0.087-0.732-0.276-1.36-0.576-1.905C68.756,124.082,68.684,123.954,68.539,123.698z"/>
					<path fill="#16212B" d="M86.089,118.775c0.417-0.119,0.694,0.049,0.815,0.507c1.019,3.86,1.527,5.791,2.547,9.65
						c0.121,0.457-0.081,0.775-0.594,0.922c-1.083,0.31-1.628,0.451-2.721,0.702c-0.518,0.119-0.831-0.066-0.918-0.532
						c-0.339-1.812-0.51-2.718-0.849-4.53c-0.232,0.685-0.353,1.026-0.605,1.708c-0.147,0.362-0.41,0.579-0.801,0.648
						c-0.755,0.134-1.133,0.192-1.891,0.297c-0.393,0.054-0.719-0.07-0.94-0.374c-0.417-0.57-0.62-0.856-1.018-1.435
						c0.163,1.833,0.244,2.749,0.408,4.582c0.042,0.473-0.207,0.748-0.732,0.793c-1.102,0.096-1.653,0.129-2.757,0.167
						c-0.526,0.018-0.802-0.223-0.811-0.698c-0.068-4.01-0.103-6.016-0.171-10.026c-0.008-0.475,0.209-0.724,0.636-0.738
						c0.948-0.033,1.423-0.062,2.369-0.146c0.338-0.03,0.614,0.105,0.81,0.43c1.014,1.604,1.557,2.391,2.713,3.931
						c0.703-1.833,1.017-2.756,1.567-4.608c0.1-0.372,0.331-0.587,0.664-0.664C84.727,119.151,85.182,119.035,86.089,118.775z"/>
					<path fill="#16212B" d="M97.885,117.369c0.361,0.704-0.22,2.313-0.22,2.313c0.068,0.111,2.118,0.271,2.621,1.229
						c0.054,0.103,0.081,0.155,0.135,0.258c1.027,1.958,0.168,3.952-3.356,5.606c-1.914,0.899-2.886,1.298-4.85,2
						c-0.507,0.181-0.839,0.036-0.975-0.417c-1.14-3.821-1.709-5.732-2.848-9.555c-0.135-0.453,0.009-0.756,0.42-0.903
						c1.513-0.541,2.262-0.848,3.739-1.533c2.573-1.193,4.272-1.067,5.208,0.758C97.81,117.223,97.834,117.271,97.885,117.369z
						 M94.646,119.138c-0.152-0.357-0.529-0.497-1.04-0.259c-0.426,0.198-0.639,0.294-1.068,0.481
						c0.247,0.649,0.371,0.974,0.618,1.623c0.383-0.167,0.573-0.252,0.954-0.427c0.589-0.271,0.822-0.748,0.645-1.165
						C94.71,119.289,94.689,119.239,94.646,119.138z M96.464,122.77c-0.212-0.491-0.72-0.523-1.554-0.139
						c-0.384,0.177-0.578,0.264-0.964,0.432c0.279,0.734,0.42,1.102,0.7,1.836c0.466-0.203,0.697-0.307,1.16-0.521
						c0.831-0.385,1.024-0.759,0.773-1.339C96.532,122.932,96.51,122.877,96.464,122.77z"/>
					<path fill="#16212B" d="M108.217,110.456c0.793,0.915,0.91,2.141,0.371,3.402c1.646,0.392,2.49,0.556,4.21,0.81
						c0.599,0.1,0.648,0.547,0.138,1.044c-0.916,0.892-1.382,1.323-2.328,2.153c-0.347,0.305-0.702,0.398-1.075,0.296
						c-1.483-0.408-2.21-0.638-3.63-1.144c-0.297,0.232-0.447,0.348-0.747,0.574c0.659,0.987,0.988,1.481,1.646,2.468
						c0.258,0.387,0.158,0.767-0.3,1.102c-0.96,0.703-1.446,1.041-2.429,1.687c-0.469,0.308-0.832,0.251-1.06-0.156
						c-1.927-3.442-2.889-5.165-4.815-8.608c-0.228-0.408-0.147-0.742,0.232-0.992c1.442-0.948,2.149-1.46,3.529-2.561
						c1.104-0.88,2.156-1.394,3.207-1.528c1.042-0.133,1.926,0.15,2.625,0.957C107.961,110.158,108.046,110.259,108.217,110.456z
						 M104.728,112.813c-0.303-0.413-0.82-0.396-1.364,0.035c-0.361,0.286-0.542,0.425-0.907,0.701
						c0.484,0.726,0.727,1.089,1.211,1.814c0.381-0.288,0.57-0.434,0.946-0.731c0.567-0.449,0.71-1.007,0.408-1.42
						C104.905,113.052,104.845,112.973,104.728,112.813z"/>
					<path fill="#16212B" d="M107.463,106.433c-0.316-0.335-0.307-0.688,0.023-1.045c2.154-2.327,3.174-3.604,5.062-6.381
						c0.29-0.426,0.631-0.516,1.005-0.254c0.413,0.289,0.62,0.434,1.033,0.723c0.375,0.262,0.413,0.636,0.106,1.086
						c-1.166,1.714-1.774,2.532-3.04,4.084c0.449,0.4,0.671,0.6,1.12,1c1.114-1.367,1.655-2.082,2.695-3.571
						c0.319-0.458,0.672-0.562,1.043-0.294c0.409,0.295,0.613,0.445,1.021,0.74c0.371,0.268,0.392,0.66,0.056,1.141
						c-1.093,1.566-1.66,2.316-2.831,3.754c0.477,0.426,0.714,0.638,1.191,1.064c1.457-1.787,2.157-2.729,3.495-4.709
						c0.34-0.504,0.706-0.635,1.081-0.374c0.414,0.288,0.62,0.431,1.034,0.719c0.375,0.261,0.39,0.675,0.033,1.203
						c-2.365,3.5-3.646,5.106-6.352,8.031c-0.408,0.441-0.787,0.49-1.103,0.155C111.468,110.675,110.134,109.262,107.463,106.433z"
						/>
				</g>
			</g>
		</g>
		<g id="epn_2_">
			<path fill="#10161D" d="M37.726,90.174c0.03-0.146,0.12-0.221,0.265-0.221h2.365c0.145,0,0.206,0.075,0.175,0.221l-0.08,0.401
				c-0.025,0.145-0.115,0.22-0.261,0.22h-1.382l-0.095,0.476h1.182c0.146,0,0.206,0.075,0.181,0.22l-0.081,0.401
				c-0.025,0.146-0.115,0.22-0.26,0.22h-1.183l-0.1,0.506h1.428c0.146,0,0.206,0.075,0.181,0.22l-0.081,0.401
				c-0.025,0.146-0.115,0.221-0.26,0.221h-2.41c-0.146,0-0.205-0.075-0.18-0.221L37.726,90.174z"/>
			<path fill="#10161D" d="M43.801,91.286c-0.065,0.336-0.256,0.602-0.561,0.792c-0.306,0.19-0.676,0.285-1.122,0.285h-0.396
				l-0.17,0.876c-0.025,0.146-0.116,0.221-0.261,0.221H40.53c-0.145,0-0.205-0.075-0.18-0.221l0.596-3.065
				c0.03-0.146,0.121-0.221,0.266-0.221h1.377c0.441,0,0.776,0.095,1.007,0.291c0.236,0.19,0.321,0.451,0.255,0.786L43.801,91.286z
				 M42.644,91.055c0.025-0.16-0.075-0.26-0.28-0.26h-0.336l-0.14,0.731h0.335c0.206,0,0.346-0.105,0.381-0.266L42.644,91.055z"/>
			<path fill="#10161D" d="M43.941,93.46c-0.146,0-0.206-0.075-0.18-0.221l0.596-3.065c0.03-0.146,0.12-0.221,0.266-0.221h0.807
				c0.12,0,0.195,0.056,0.226,0.161l0.396,1.333l0.246-1.272c0.03-0.146,0.12-0.221,0.265-0.221h0.762
				c0.145,0,0.205,0.075,0.175,0.221l-0.596,3.065c-0.025,0.146-0.115,0.221-0.26,0.221h-0.817c-0.12,0-0.195-0.055-0.23-0.16
				l-0.385-1.328l-0.246,1.267c-0.024,0.146-0.115,0.221-0.26,0.221H43.941z"/>
		</g>
		<g id="iconos_2_">
			<g>
				<path fill="#151B58" d="M79.741,81.213c-0.236,0-0.469,0.015-0.699,0.039c-1.189-1.418-2.972-2.323-4.963-2.323
					s-3.773,0.905-4.962,2.323c-0.23-0.024-0.463-0.039-0.699-0.039c-1.526,0-2.928,0.534-4.036,1.42l1.448,0.972
					c0.673-0.427,1.455-0.696,2.296-0.747c0.097-0.006,0.193-0.015,0.292-0.015c0.496,0,0.975,0.076,1.426,0.215
					c0.283-0.509,0.655-0.96,1.095-1.335c0.847-0.723,1.943-1.163,3.141-1.163c1.199,0,2.294,0.439,3.141,1.163
					c0.439,0.375,0.812,0.827,1.095,1.335c0.451-0.139,0.93-0.215,1.426-0.215c0.099,0,0.195,0.009,0.292,0.015
					c2.536,0.152,4.555,2.258,4.555,4.832c0,2.248-1.541,4.138-3.621,4.683h-0.89v0.146v1.631v4.352h-2.043v1.631h2.043v2.609
					H68.083v-2.609h8.375v-1.631h-8.375V94.15V92.52v-0.146h-0.89c-2.08-0.545-3.621-2.435-3.621-4.683
					c0-1.113,0.379-2.139,1.013-2.957l-1.353-0.908c-0.807,1.08-1.291,2.415-1.291,3.864c0,2.74,1.713,5.083,4.123,6.027v10.656
					h16.031v-4.24v-1.631v-4.784c2.41-0.945,4.123-3.287,4.123-6.027C86.218,84.119,83.313,81.213,79.741,81.213z"/>
			</g>
			<g>
				<path fill="#151B58" d="M55.904,81.105c-1.087,0-2.06,0.622-2.785,1.644l1.358,0.912c0.429-0.588,0.939-0.925,1.427-0.925
					c1.163,0,2.46,1.898,2.46,4.621c0,2.724-1.297,4.622-2.46,4.622c-1.164,0-2.46-1.898-2.46-4.622c0-0.823,0.12-1.569,0.317-2.212
					l-1.402-0.941c-0.346,0.921-0.546,1.995-0.546,3.154c0,3.071,1.379,5.558,3.262,6.129v10.997h1.631v-10.99
					c1.897-0.556,3.289-3.05,3.289-6.136C59.995,83.852,58.198,81.105,55.904,81.105z"/>
			</g>
			<g>
				<path fill="#151B58" d="M94.767,90.074h-1.698v-9.078c0-0.451-0.365-0.816-0.816-0.816s-0.815,0.365-0.815,0.816v9.078h-1.631
					v-7.447c0-0.451-0.365-0.815-0.815-0.815c-0.451,0-0.816,0.365-0.816,0.815v8.115c0,0,1.035,0.97,1.058,0.962h2.204v12.669
					h1.631V91.705h2.271c0.029,0.009,1.058-0.943,1.058-0.943v-2.027l-1.631-1.095V90.074z"/>
				<path fill="#151B58" d="M96.398,82.627c0-0.451-0.365-0.815-0.815-0.815s-0.816,0.365-0.816,0.815v3.049l1.631,1.095V82.627z"/>
			</g>
		</g>
		<g>
			<path d="M100.464,90.361c0.028-0.133,0.11-0.203,0.244-0.203h2.169c0.133,0,0.188,0.069,0.161,0.203l-0.074,0.368
				c-0.023,0.133-0.105,0.202-0.239,0.202h-1.269l-0.102,0.528h1.113c0.133,0,0.188,0.069,0.161,0.203l-0.069,0.363
				c-0.028,0.133-0.11,0.202-0.244,0.202h-1.112l-0.184,0.947c-0.023,0.133-0.105,0.202-0.239,0.202h-0.699
				c-0.133,0-0.188-0.069-0.166-0.202L100.464,90.361z"/>
			<path d="M102.979,92.172l0.161-0.809c0.147-0.772,0.735-1.26,1.742-1.26c1.053-0.004,1.393,0.524,1.25,1.26l-0.161,0.809
				c-0.142,0.745-0.68,1.259-1.737,1.259C103.19,93.432,102.84,92.912,102.979,92.172z M104.1,92.08
				c-0.074,0.409-0.009,0.58,0.28,0.58c0.294,0,0.428-0.161,0.505-0.58l0.125-0.625c0.087-0.404,0.014-0.579-0.285-0.579
				c-0.29,0-0.428,0.175-0.501,0.579L104.1,92.08z"/>
			<path d="M106.357,92.172l0.161-0.809c0.147-0.772,0.735-1.26,1.742-1.26c1.053-0.004,1.393,0.524,1.25,1.26l-0.161,0.809
				c-0.142,0.745-0.68,1.259-1.737,1.259C106.569,93.432,106.219,92.912,106.357,92.172z M107.479,92.08
				c-0.074,0.409-0.009,0.58,0.28,0.58c0.294,0,0.428-0.161,0.505-0.58l0.125-0.625c0.087-0.404,0.014-0.579-0.285-0.579
				c-0.29,0-0.428,0.175-0.501,0.579L107.479,92.08z"/>
			<path d="M112.59,92.163c-0.133,0.689-0.699,1.213-1.981,1.213h-0.854c-0.133,0-0.188-0.069-0.166-0.202l0.547-2.813
				c0.028-0.133,0.11-0.203,0.244-0.203h0.947c1.241,0.005,1.553,0.524,1.416,1.209L112.59,92.163z M111.625,91.459
				c0.069-0.368-0.027-0.528-0.414-0.528h-0.083l-0.326,1.673h0.083c0.363,0,0.547-0.166,0.621-0.529L111.625,91.459z"/>
		</g>
	</g>
</g>
<g id="Capa_5" display="none">
	<rect display="inline" fill="#D85C00" width="482.172" height="43.108"/>
	<rect y="756.893" display="inline" fill="#D85C00" width="482.172" height="43.107"/>
	
		<text transform="matrix(1 0 0 1 158.7256 31.6084)" display="inline" fill="#FFFFFF" font-family="'JihoSoft-Black'" font-size="25">BIENVENIDO</text>
	<g display="inline">
		<g id="Muertos_1_">
			<path fill="#16212B" d="M124.297,97.787c1.932,0,2.931,1.001,2.931,2.932v40.785c0,1.931-1,2.931-2.931,2.931h-10.196
				c-1.931,0-2.932-1-2.932-2.931v-18.793l-3.531,6.33c-0.801,1.335-1.933,2-3.467,2h-7.395c-1.533,0-2.732-0.666-3.465-2
				l-3.465-6.263v18.727c0,1.931-1,2.931-2.932,2.931H76.785c-1.933,0-2.934-1-2.934-2.931v-40.785c0-1.931,1-2.932,2.934-2.932
				h10.729c1.531,0,2.731,0.667,3.464,2.066l9.596,17.326l9.73-17.326c0.733-1.399,1.933-2.066,3.464-2.066H124.297z"/>
			<path fill="#16212B" d="M135.152,126.909v-26.19c0-1.931,1-2.932,2.932-2.932h10.13c1.931,0,2.932,1.001,2.932,2.932v25.855
				c0,5,1.465,7.331,4.93,7.331c3.533,0,5.131-2.331,5.131-7.331v-25.855c0-1.931,1-2.932,2.933-2.932h10.13
				c1.932,0,2.931,1.001,2.931,2.932v26.19c0,13.327-8.997,18.325-21.057,18.325C144.615,145.234,135.152,140.236,135.152,126.909z"
				/>
			<path fill="#16212B" d="M185.192,100.719c0-1.931,1-2.932,2.934-2.932h31.452c1.933,0,2.933,1.001,2.933,2.932v5.332
				c0,1.933-1,2.933-2.933,2.933h-18.393v6.331h15.729c1.932,0,2.932,0.999,2.932,2.932v5.331c0,1.933-1,2.932-2.932,2.932h-15.729
				v6.73h18.992c1.933,0,2.934,1.001,2.934,2.934v5.332c0,1.931-1,2.931-2.934,2.931h-32.051c-1.933,0-2.934-1-2.934-2.931V100.719z
				"/>
			<path fill="#16212B" d="M269.95,114.848c0,5.065-2.599,9.062-6.931,11.461l9.267,14.595c1.265,2.065,0.396,3.531-1.933,3.531
				h-10.465c-1.531,0-2.666-0.667-3.466-2l-7.929-13.26h-3.4v12.33c0,1.931-0.996,2.931-2.93,2.931h-10.131
				c-1.931,0-2.931-1-2.931-2.931v-40.785c0-1.931,1-2.932,2.931-2.932h18.326c5.863,0,10.597,1.266,14.197,3.866
				c3.594,2.533,5.394,5.997,5.394,10.463V114.848z M254.025,112.448c0-2.133-1.665-3.465-4.398-3.465h-4.533v9.063h4.533
				c2.733,0,4.398-1.4,4.398-3.533V112.448z"/>
			<path fill="#16212B" d="M286.81,108.983h-10.665c-1.932,0-2.935-1-2.935-2.933v-5.332c0-1.931,1.003-2.932,2.935-2.932h37.318
				c1.934,0,2.934,1.001,2.934,2.932v5.332c0,1.933-1,2.933-2.934,2.933h-10.661v32.521c0,1.931-1.001,2.931-2.934,2.931h-10.13
				c-1.932,0-2.929-1-2.929-2.931V108.983z"/>
			<path fill="#16212B" d="M316.392,126.977v-11.73c0-10.662,6.528-18.259,21.723-18.259c15.196,0,21.659,7.597,21.659,18.259v11.73
				c0,10.728-6.463,18.258-21.659,18.258C322.92,145.234,316.392,137.771,316.392,126.977z M332.385,125.643
				c0,5.931,1.465,8.396,5.663,8.396c4.265,0,5.734-2.333,5.734-8.396v-9.063c0-6.064-1.47-8.396-5.734-8.396
				c-4.198,0-5.663,2.532-5.663,8.396V125.643z"/>
			<path fill="#16212B" d="M375.562,122.977c-7.464-3.198-10.262-6.597-10.262-12.794c0-8.53,7.462-13.195,19.523-13.195
				c5.733,0,11.599,1.532,17.596,4.665c1.665,0.867,2.063,2.399,1.063,4.065l-2.795,4.665c-0.934,1.599-2.27,1.933-4.066,1
				c-4.267-2.333-8.265-3.531-12.061-3.531c-2.135,0-3.27,1.065-3.27,2.464c0,1.334,1.068,2.4,3.137,3.267l11.062,4.665
				c7.529,3.199,10.66,7.063,10.66,13.261c0,8.729-7.327,13.727-20.393,13.727c-6.595,0-13.125-1.733-19.456-5.198
				c-1.667-0.866-2.135-2.398-1.134-3.998l2.664-4.799c0.935-1.665,2.266-2.065,4.064-1.066c5.064,2.8,9.663,4.198,13.729,4.198
				c2.935,0,4.532-1.198,4.532-3.132c0-1.399-1.067-2.465-3.532-3.532L375.562,122.977z"/>
		</g>
		<g id="de_hambre_2_">
			<g>
				<g>
					<path fill="#16212B" d="M142.881,248.075c-4.21,4.588-11.518,4.756-20.999-7.651c-2.528-3.309-3.76-5.02-6.147-8.554
						c-0.931-1.377-0.895-2.457,0.085-3.137c8.269-5.745,12.401-8.616,20.668-14.36c0.979-0.681,1.868-0.442,2.623,0.674
						c2.145,3.174,3.254,4.704,5.539,7.654c7.457,9.631,7.24,15.554,3.086,20.081C145.794,244.9,144.824,245.958,142.881,248.075z
						 M139.422,234.821c2.434-2.238,2.627-4.185,0.162-7.352c-0.211-0.271-0.317-0.407-0.527-0.68
						c-4.607,3.853-6.912,5.779-11.519,9.632c0.234,0.304,0.353,0.456,0.588,0.758c2.518,3.236,4.815,3.602,7.219,1.391
						C136.976,237.072,137.791,236.321,139.422,234.821z"/>
					<path fill="#16212B" d="M156.776,238.955c0.787-0.915,1.657-0.936,2.564-0.087c5.907,5.524,9.015,7.993,15.437,12.343
						c0.986,0.668,1.186,1.547,0.576,2.603c-0.673,1.165-1.008,1.748-1.681,2.913c-0.61,1.056-1.47,1.25-2.512,0.545
						c-3.965-2.686-5.909-4.135-9.697-7.245c-0.934,1.284-1.401,1.927-2.335,3.21c3.336,2.739,5.042,4.029,8.513,6.448
						c1.066,0.743,1.301,1.654,0.678,2.702c-0.688,1.155-1.031,1.733-1.719,2.889c-0.623,1.047-1.529,1.197-2.65,0.416
						c-3.649-2.544-5.443-3.899-8.951-6.778c-0.993,1.365-1.491,2.047-2.484,3.413c4.36,3.58,6.601,5.243,11.17,8.319
						c1.163,0.783,1.458,1.72,0.851,2.777c-0.669,1.167-1.005,1.751-1.675,2.918c-0.607,1.058-1.557,1.196-2.775,0.376
						c-8.08-5.438-11.987-8.532-19.41-15.474c-1.119-1.046-1.283-2.075-0.496-2.99C146.821,250.534,150.139,246.673,156.776,238.955
						z"/>
					<path fill="#16212B" d="M186.597,260.366c0.503-1.118,1.297-1.418,2.336-0.905c2.179,1.077,3.277,1.584,5.49,2.54
						c1.056,0.456,1.387,1.275,0.968,2.432c-1.167,3.223-1.75,4.835-2.917,8.058c2.167,0.897,3.256,1.319,5.448,2.108
						c1.032-3.275,1.547-4.913,2.579-8.188c0.371-1.176,1.117-1.58,2.192-1.21c2.24,0.77,3.367,1.124,5.631,1.773
						c1.086,0.312,1.503,1.082,1.219,2.284c-2.4,10.151-3.6,15.229-6.001,25.38c-0.285,1.203-1.128,1.64-2.468,1.256
						c-2.792-0.801-4.18-1.238-6.942-2.187c-1.326-0.456-1.818-1.315-1.448-2.491c1.237-3.923,1.855-5.886,3.091-9.81
						c-2.305-0.831-3.452-1.274-5.73-2.217c-1.399,3.861-2.098,5.792-3.497,9.653c-0.419,1.157-1.313,1.48-2.615,0.919
						c-2.729-1.177-4.083-1.804-6.77-3.131c-1.281-0.633-1.678-1.555-1.175-2.673C180.234,274.522,182.354,269.804,186.597,260.366z
						"/>
					<path fill="#16212B" d="M228.025,270.78c0.881,0.09,1.538,0.534,1.985,1.344c1.454,2.49,2.219,3.725,3.823,6.164
						c1.415,2.123,2.406,4.009,2.937,5.622c0.535,1.626,0.839,3.737,0.806,6.346c-0.046,3.661-0.069,5.493-0.115,9.154
						c-0.016,1.241-0.735,1.875-2.109,1.835c-2.862-0.085-4.293-0.165-7.15-0.397c-1.372-0.112-2.027-0.824-1.923-2.06
						c0.172-2.045,0.259-3.067,0.431-5.112c-2.764-0.268-4.145-0.438-6.898-0.851c-0.266,2.033-0.398,3.052-0.665,5.085
						c-0.161,1.229-0.951,1.762-2.314,1.537c-2.857-0.472-4.281-0.746-7.12-1.368c-1.354-0.297-1.925-1.093-1.676-2.305
						c0.734-3.576,1.102-5.364,1.836-8.94c0.523-2.548,1.244-4.524,2.1-5.991c0.856-1.467,2.236-3.035,4.072-4.755
						c2.105-1.979,3.124-2.992,5.088-5.06c0.608-0.679,1.345-0.95,2.186-0.829C225.197,270.472,226.14,270.587,228.025,270.78z
						 M224.64,279.86c-0.493,0.559-0.742,0.838-1.244,1.392c-1.061,1.153-1.892,2.627-2.438,4.489
						c2.451,0.363,3.68,0.515,6.141,0.757c-0.227-1.913-0.72-3.552-1.502-4.975C225.208,280.86,225.017,280.527,224.64,279.86z"/>
					<path fill="#16212B" d="M270.463,267.006c1.087-0.311,1.81,0.134,2.125,1.328c2.661,10.079,3.99,15.115,6.654,25.192
						c0.315,1.194-0.212,2.024-1.553,2.407c-2.828,0.808-4.249,1.175-7.103,1.831c-1.353,0.311-2.172-0.172-2.399-1.389
						c-0.887-4.731-1.332-7.097-2.218-11.828c-0.605,1.787-0.918,2.68-1.576,4.46c-0.384,0.945-1.07,1.511-2.092,1.691
						c-1.971,0.349-2.958,0.504-4.937,0.777c-1.024,0.142-1.876-0.184-2.451-0.977c-1.088-1.488-1.62-2.238-2.659-3.748
						c0.426,4.786,0.64,7.18,1.066,11.966c0.11,1.235-0.541,1.951-1.913,2.07c-2.875,0.249-4.316,0.336-7.197,0.436
						c-1.375,0.047-2.096-0.585-2.117-1.826c-0.179-10.47-0.266-15.704-0.443-26.174c-0.021-1.241,0.544-1.889,1.659-1.927
						c2.476-0.085,3.713-0.163,6.183-0.384c0.882-0.079,1.604,0.276,2.115,1.124c2.646,4.187,4.065,6.244,7.082,10.265
						c1.837-4.787,2.654-7.198,4.093-12.033c0.26-0.97,0.859-1.534,1.73-1.733C266.903,267.989,268.094,267.683,270.463,267.006z"/>
					<path fill="#16212B" d="M301.26,263.337c0.942,1.838-0.572,6.04-0.572,6.04c0.179,0.291,5.53,0.707,6.842,3.207
						c0.141,0.269,0.212,0.404,0.353,0.672c2.683,5.111,0.438,10.316-8.765,14.636c-4.997,2.346-7.533,3.391-12.659,5.224
						c-1.323,0.473-2.193,0.092-2.546-1.09c-2.977-9.977-4.462-14.963-7.436-24.942c-0.353-1.182,0.022-1.978,1.096-2.362
						c3.951-1.413,5.91-2.213,9.767-4.002c6.716-3.115,11.15-2.785,13.594,1.979C301.063,262.954,301.129,263.083,301.26,263.337z
						 M292.801,267.954c-0.398-0.935-1.377-1.298-2.711-0.678c-1.113,0.517-1.671,0.769-2.792,1.256
						c0.646,1.696,0.968,2.543,1.613,4.239c1-0.435,1.499-0.658,2.493-1.115c1.539-0.708,2.146-1.951,1.681-3.04
						C292.972,268.352,292.914,268.219,292.801,267.954z M297.549,277.438c-0.554-1.282-1.879-1.364-4.057-0.363
						c-1.003,0.461-1.505,0.685-2.514,1.124c0.729,1.917,1.096,2.876,1.826,4.793c1.216-0.529,1.82-0.8,3.028-1.36
						c2.167-1.005,2.67-1.98,2.016-3.495C297.728,277.858,297.67,277.717,297.549,277.438z"/>
					<path fill="#16212B" d="M328.24,245.282c2.07,2.388,2.373,5.593,0.967,8.886c4.298,1.023,6.498,1.45,10.989,2.114
						c1.563,0.261,1.695,1.431,0.362,2.729c-2.392,2.328-3.609,3.452-6.079,5.62c-0.904,0.793-1.833,1.039-2.808,0.773
						c-3.873-1.065-5.767-1.666-9.474-2.987c-0.776,0.607-1.171,0.908-1.954,1.5c1.721,2.578,2.582,3.866,4.303,6.444
						c0.675,1.011,0.41,2.001-0.785,2.877c-2.507,1.836-3.776,2.717-6.342,4.403c-1.224,0.804-2.17,0.655-2.766-0.41
						c-5.03-8.988-7.544-13.48-12.574-22.47c-0.596-1.065-0.386-1.941,0.606-2.593c3.765-2.474,5.609-3.81,9.212-6.683
						c2.882-2.298,5.631-3.643,8.371-3.993c2.719-0.348,5.027,0.397,6.852,2.502C327.567,244.509,327.794,244.767,328.24,245.282z
						 M319.131,251.44c-0.791-1.078-2.141-1.037-3.561,0.086c-0.942,0.746-1.416,1.113-2.369,1.833
						c1.265,1.896,1.897,2.842,3.162,4.737c0.994-0.751,1.49-1.133,2.473-1.911c1.48-1.172,1.85-2.625,1.059-3.703
						C319.588,252.066,319.438,251.858,319.131,251.44z"/>
					<path fill="#16212B" d="M326.269,234.78c-0.826-0.875-0.799-1.797,0.065-2.73c5.623-6.076,8.286-9.408,13.216-16.658
						c0.757-1.114,1.643-1.349,2.62-0.665c1.079,0.755,1.621,1.133,2.699,1.888c0.978,0.684,1.077,1.66,0.277,2.836
						c-3.044,4.477-4.634,6.608-7.937,10.661c1.171,1.045,1.757,1.568,2.928,2.613c2.909-3.569,4.317-5.435,7.032-9.323
						c0.834-1.195,1.757-1.463,2.725-0.764c1.067,0.771,1.603,1.155,2.67,1.926c0.967,0.699,1.021,1.726,0.145,2.982
						c-2.854,4.088-4.336,6.047-7.395,9.8c1.245,1.111,1.868,1.666,3.113,2.777c3.802-4.666,5.633-7.123,9.125-12.292
						c0.888-1.314,1.845-1.659,2.823-0.979c1.08,0.751,1.62,1.126,2.7,1.877c0.979,0.681,1.014,1.763,0.084,3.139
						c-6.174,9.139-9.518,13.332-16.583,20.967c-1.065,1.151-2.05,1.278-2.876,0.403
						C336.729,245.856,333.243,242.166,326.269,234.78z"/>
				</g>
			</g>
		</g>
		<g id="epn_1_">
			<path fill="#10161D" d="M144.189,192.329c0.078-0.38,0.313-0.576,0.692-0.576h6.174c0.379,0,0.537,0.196,0.458,0.576
				l-0.209,1.047c-0.066,0.378-0.301,0.575-0.681,0.575h-3.609l-0.249,1.243h3.086c0.38,0,0.537,0.196,0.472,0.575l-0.21,1.046
				c-0.065,0.38-0.301,0.575-0.68,0.575h-3.087l-0.261,1.321h3.728c0.38,0,0.537,0.196,0.472,0.575l-0.21,1.047
				c-0.065,0.38-0.299,0.576-0.68,0.576h-6.292c-0.38,0-0.535-0.196-0.47-0.576L144.189,192.329z"/>
			<path fill="#10161D" d="M160.053,195.232c-0.171,0.877-0.668,1.571-1.465,2.068c-0.798,0.496-1.766,0.745-2.93,0.745h-1.034
				l-0.444,2.289c-0.066,0.38-0.302,0.576-0.681,0.576h-1.988c-0.379,0-0.536-0.196-0.471-0.576l1.557-8.004
				c0.079-0.38,0.315-0.576,0.693-0.576h3.597c1.151,0,2.027,0.249,2.629,0.76c0.616,0.497,0.837,1.177,0.667,2.053L160.053,195.232
				z M157.031,194.63c0.066-0.417-0.196-0.68-0.732-0.68h-0.877l-0.366,1.91h0.875c0.537,0,0.903-0.274,0.995-0.694L157.031,194.63z
				"/>
			<path fill="#10161D" d="M160.417,200.909c-0.38,0-0.537-0.196-0.47-0.576l1.556-8.004c0.078-0.38,0.313-0.576,0.693-0.576h2.106
				c0.313,0,0.51,0.146,0.589,0.419l1.033,3.479l0.641-3.322c0.078-0.38,0.313-0.576,0.692-0.576h1.989
				c0.379,0,0.536,0.196,0.458,0.576l-1.556,8.004c-0.065,0.38-0.301,0.576-0.68,0.576h-2.133c-0.313,0-0.51-0.144-0.602-0.418
				l-1.005-3.466l-0.643,3.309c-0.064,0.38-0.3,0.576-0.68,0.576H160.417z"/>
		</g>
		<g id="iconos_1_">
			<g>
				<path fill="#151B58" d="M253.89,168.934c-0.617,0-1.226,0.039-1.824,0.103c-3.105-3.703-7.759-6.065-12.958-6.065
					c-5.199,0-9.853,2.362-12.957,6.065c-0.601-0.064-1.208-0.103-1.826-0.103c-3.984,0-7.644,1.394-10.538,3.708l3.782,2.539
					c1.756-1.114,3.799-1.817,5.996-1.95c0.253-0.015,0.505-0.038,0.761-0.038c1.295,0,2.545,0.198,3.723,0.561
					c0.738-1.328,1.711-2.506,2.858-3.487c2.211-1.888,5.073-3.035,8.202-3.035c3.129,0,5.991,1.147,8.201,3.035
					c1.147,0.98,2.12,2.159,2.858,3.487c1.179-0.363,2.428-0.561,3.723-0.561c0.258,0,0.509,0.023,0.762,0.038
					c6.621,0.398,11.892,5.895,11.892,12.615c0,5.869-4.023,10.803-9.453,12.226h-2.323v0.382v4.258v11.361h-5.334v4.259h5.334
					v6.813h-31.315v-6.813h21.865v-4.259h-21.865v-11.361v-4.258v-0.382h-2.325c-5.43-1.423-9.453-6.357-9.453-12.226
					c0-2.907,0.989-5.584,2.645-7.72l-3.532-2.37c-2.107,2.82-3.371,6.306-3.371,10.089c0,7.155,4.474,13.27,10.764,15.737v27.822
					h41.857v-11.071v-4.259v-12.491c6.291-2.467,10.765-8.582,10.765-15.737C270.801,176.52,263.215,168.934,253.89,168.934z"/>
			</g>
			<g>
				<path fill="#151B58" d="M191.653,168.652c-2.839,0-5.378,1.625-7.272,4.293l3.547,2.38c1.12-1.535,2.451-2.415,3.725-2.415
					c3.037,0,6.423,4.956,6.423,12.065c0,7.111-3.386,12.067-6.423,12.067c-3.039,0-6.424-4.956-6.424-12.067
					c0-2.149,0.313-4.098,0.829-5.776l-3.662-2.458c-0.904,2.406-1.427,5.208-1.427,8.234c0,8.018,3.601,14.512,8.518,16.002v28.712
					h4.259v-28.695c4.954-1.451,8.588-7.964,8.588-16.02C202.334,175.822,197.642,168.652,191.653,168.652z"/>
			</g>
			<g>
				<path fill="#151B58" d="M293.122,192.068h-4.435v-23.701c0-1.177-0.953-2.13-2.131-2.13c-1.177,0-2.129,0.954-2.129,2.13v23.701
					h-4.258v-19.443c0-1.176-0.954-2.129-2.129-2.129c-1.177,0-2.131,0.953-2.131,2.129v21.188c0,0,2.702,2.532,2.764,2.513h5.754
					v33.078h4.26v-33.078h5.931c0.075,0.023,2.763-2.461,2.763-2.461v-5.292l-4.259-2.858V192.068z"/>
				<path fill="#151B58" d="M297.381,172.625c0-1.176-0.953-2.129-2.129-2.129c-1.177,0-2.13,0.953-2.13,2.129v7.962l4.259,2.858
					V172.625z"/>
			</g>
		</g>
		<g>
			<path d="M307.995,192.819c0.072-0.348,0.288-0.529,0.638-0.529h5.664c0.348,0,0.492,0.181,0.419,0.529l-0.191,0.96
				c-0.06,0.348-0.276,0.528-0.624,0.528h-3.312l-0.266,1.379h2.905c0.349,0,0.492,0.181,0.421,0.529l-0.181,0.949
				c-0.073,0.348-0.288,0.528-0.637,0.528h-2.904l-0.48,2.472c-0.06,0.348-0.275,0.528-0.623,0.528H307
				c-0.349,0-0.492-0.18-0.433-0.528L307.995,192.819z"/>
			<path d="M314.561,197.547l0.42-2.113c0.383-2.017,1.92-3.289,4.548-3.289c2.749-0.011,3.638,1.369,3.266,3.289l-0.421,2.113
				c-0.371,1.944-1.775,3.288-4.536,3.288C315.112,200.835,314.2,199.479,314.561,197.547z M317.489,197.306
				c-0.192,1.068-0.024,1.514,0.732,1.514c0.769,0,1.116-0.421,1.318-1.514l0.325-1.631c0.229-1.056,0.036-1.513-0.744-1.513
				c-0.756,0-1.117,0.457-1.308,1.513L317.489,197.306z"/>
			<path d="M323.383,197.547l0.421-2.113c0.384-2.017,1.92-3.289,4.548-3.289c2.748-0.011,3.637,1.369,3.265,3.289l-0.42,2.113
				c-0.372,1.944-1.776,3.288-4.537,3.288C323.935,200.835,323.022,199.479,323.383,197.547z M326.311,197.306
				c-0.191,1.068-0.023,1.514,0.732,1.514c0.77,0,1.116-0.421,1.319-1.514l0.325-1.631c0.229-1.056,0.035-1.513-0.744-1.513
				c-0.756,0-1.117,0.457-1.309,1.513L326.311,197.306z"/>
			<path d="M339.657,197.523c-0.349,1.8-1.824,3.168-5.174,3.168h-2.231c-0.348,0-0.492-0.18-0.432-0.528l1.428-7.344
				c0.072-0.348,0.288-0.529,0.636-0.529h2.474c3.239,0.013,4.056,1.37,3.696,3.156L339.657,197.523z M337.136,195.686
				c0.18-0.96-0.071-1.379-1.079-1.379h-0.217l-0.852,4.369h0.216c0.948,0,1.429-0.433,1.621-1.381L337.136,195.686z"/>
		</g>
	</g>
	
		<rect x="92.548" y="479.592" display="inline" fill="#FFFFFF" stroke="#16212B" stroke-width="2" stroke-miterlimit="10" width="290.985" height="40.408"/>
	<g display="inline">
		
			<image overflow="visible" opacity="0.75" width="120" height="57" xlink:href="291C566A.png"  transform="matrix(1 0 0 1 178 355)">
		</image>
		<g>
			<rect x="193.992" y="367.598" fill="#65AFE2" width="88.098" height="26.069"/>
		</g>
	</g>
	<g display="inline">
		
			<image overflow="visible" opacity="0.75" width="119" height="57" xlink:href="291C566E.png"  transform="matrix(1 0 0 1 77 355)">
		</image>
		<g>
			<rect x="92.548" y="367.598" fill="#3A589A" width="88.098" height="26.069"/>
		</g>
	</g>
	<g display="inline">
		
			<image overflow="visible" opacity="0.75" width="119" height="57" xlink:href="291C5669.png"  transform="matrix(1 0 0 1 281 355)">
		</image>
		<g>
			<rect x="296.083" y="367.598" fill="#FFFFFF" width="88.098" height="26.069"/>
		</g>
	</g>
	
		<rect x="92.548" y="560.756" display="inline" fill="#FFFFFF" stroke="#16212B" stroke-width="2" stroke-miterlimit="10" width="290.985" height="40.407"/>
	<text transform="matrix(1 0 0 1 171.5869 339.667)" display="inline" font-family="'JihoSoft-Light'" font-size="20">registratse con:</text>
	<text transform="matrix(1 0 0 1 234.9502 430.7549)" display="inline" font-family="'JihoSoft-Light'" font-size="20">o</text>
	<line display="inline" fill="none" stroke="#000000" stroke-miterlimit="10" x1="0" y1="425.667" x2="207.416" y2="425.667"/>
	<line display="inline" fill="none" stroke="#000000" stroke-miterlimit="10" x1="272.584" y1="425.667" x2="480" y2="425.667"/>
	<text transform="matrix(1 0 0 1 119.8633 384)" display="inline" font-family="'JihoSoft-Light'" font-size="12">FACEBOOK</text>
	<path display="inline" fill-rule="evenodd" clip-rule="evenodd" fill="#FFFFFF" d="M103.93,384.189c0-1.023,0.001-2.047-0.001-3.07
		c-0.001-0.438,0.048-0.389-0.406-0.393c-0.276-0.003-0.553-0.006-0.83,0.001c-0.143,0.003-0.195-0.05-0.194-0.194
		c0.004-0.664,0.006-1.327-0.001-1.991c-0.002-0.169,0.075-0.199,0.218-0.196c0.322,0.005,0.646-0.009,0.968,0.005
		c0.197,0.008,0.253-0.065,0.25-0.255c-0.01-0.479-0.009-0.959,0.002-1.438c0.039-1.769,0.899-2.694,2.663-2.817
		c0.707-0.049,1.419-0.014,2.129-0.022c0.146-0.002,0.192,0.053,0.191,0.194c-0.004,0.664-0.006,1.328,0.001,1.991
		c0.002,0.168-0.073,0.199-0.217,0.196c-0.369-0.005-0.738-0.01-1.106,0.002c-0.598,0.02-0.789,0.208-0.813,0.806
		c-0.015,0.369,0,0.738-0.011,1.106c-0.005,0.181,0.062,0.239,0.242,0.236c0.543-0.01,1.088,0.005,1.632-0.008
		c0.216-0.005,0.292,0.051,0.264,0.278c-0.081,0.63-0.149,1.263-0.207,1.896c-0.016,0.173-0.088,0.213-0.244,0.21
		c-0.461-0.007-0.923,0.012-1.383-0.007c-0.249-0.011-0.309,0.074-0.308,0.313c0.008,2.074,0.005,4.148,0.004,6.224
		c0,0.365-0.001,0.366-0.357,0.366c-0.737,0.001-1.475-0.006-2.212,0.005c-0.219,0.004-0.28-0.07-0.278-0.285
		C103.936,386.292,103.93,385.24,103.93,384.189z"/>
	<text transform="matrix(1 0 0 1 228.7002 384)" display="inline" font-family="'JihoSoft-Light'" font-size="12">TWITTER</text>
	<path display="inline" fill-rule="evenodd" clip-rule="evenodd" fill="#FEFEFE" d="M207.786,376.664
		c0.033,0.016,0.066,0.033,0.099,0.05c0.234,0.144,0.48,0.259,0.744,0.336c0.083,0.039,0.178,0.048,0.255,0.103
		c0.396,0.192,0.818,0.3,1.24,0.408c0.139-0.083,0.278-0.022,0.417,0c0.086,0.021,0.169,0.058,0.261,0.053
		c0.363,0.083,0.734,0.106,1.101,0.161c0.199,0.029,0.233-0.083,0.21-0.235c-0.039-0.263-0.066-0.525-0.033-0.79
		c0.028-0.117,0.062-0.232,0.035-0.354c-0.001-0.224,0.054-0.436,0.138-0.641c0.04-0.097,0.085-0.198,0.21-0.215
		c0.29-0.523,0.609-1.02,1.08-1.405c0.544-0.446,1.157-0.732,1.855-0.831c0.041-0.006,0.079-0.024,0.118-0.037
		c0.641-0.033,1.269,0.035,1.877,0.249v-0.002c0.08,0.046,0.182,0.04,0.249,0.113c0.231,0.151,0.461,0.301,0.693,0.452
		c0.23,0.339,0.517,0.401,0.907,0.26c0.489-0.176,0.987-0.322,1.442-0.578c0.118-0.049,0.211-0.148,0.345-0.162
		c0.021-0.009,0.042-0.006,0.06,0.01c-0.134,0.49-0.422,0.893-0.724,1.29c-0.251,0.236-0.494,0.482-0.789,0.681
		c0.683-0.042,1.322-0.254,2-0.506c-0.053,0.111-0.081,0.169-0.11,0.227c-0.477,0.609-0.999,1.174-1.63,1.628
		c-0.077,0.056-0.095,0.13-0.091,0.218c0.02,0.581-0.018,1.16-0.07,1.738c-0.118,0.547-0.235,1.094-0.353,1.642
		c-0.101,0.281-0.202,0.563-0.304,0.844c-0.16,0.367-0.321,0.733-0.481,1.101c-0.372,0.636-0.723,1.284-1.197,1.854
		c-0.09,0.108-0.175,0.221-0.261,0.331c-0.745,0.792-1.54,1.523-2.479,2.085c-0.434,0.259-0.885,0.48-1.338,0.702
		c-0.573,0.205-1.152,0.396-1.742,0.548c-0.888,0.163-1.781,0.265-2.686,0.258c-0.178-0.004-0.356-0.006-0.535-0.01
		c-0.565-0.082-1.131-0.165-1.697-0.245c-0.537-0.166-1.073-0.33-1.609-0.495c-0.415-0.199-0.829-0.397-1.244-0.597
		c-0.124-0.115-0.267-0.198-0.426-0.254c-0.075-0.039-0.11-0.094,0-0.115c0.108-0.021,0.213-0.052,0.335-0.035
		c0.306,0.043,0.617,0.061,0.924-0.009c0.168-0.007,0.335-0.026,0.498-0.073c0.259-0.038,0.526-0.032,0.773-0.14
		c0.937-0.24,1.817-0.604,2.644-1.208c-0.406-0.071-0.776-0.137-1.122-0.288c-0.248-0.124-0.513-0.218-0.732-0.395
		c-0.133-0.17-0.388-0.229-0.431-0.479c-0.116-0.123-0.192-0.286-0.359-0.357c-0.1-0.16-0.198-0.32-0.298-0.479
		c-0.081-0.184-0.163-0.368-0.245-0.552c-0.096-0.228,0.095-0.149,0.187-0.176c0.144-0.065,0.295-0.016,0.443-0.019
		c0.202-0.003,0.404-0.011,0.588-0.052c-0.188-0.116-0.471-0.083-0.587-0.345c-0.173-0.135-0.404-0.178-0.552-0.35
		c-0.166-0.162-0.31-0.347-0.519-0.457c-0.106-0.147-0.212-0.294-0.319-0.44c-0.112-0.216-0.226-0.433-0.339-0.649
		c-0.098-0.206-0.189-0.413-0.205-0.645c0.004-0.103-0.004-0.202-0.048-0.296c-0.057-0.165-0.021-0.335-0.024-0.502
		c-0.001-0.038,0.032-0.051,0.068-0.034c0.292,0.168,0.596,0.307,0.937,0.339c0.08,0.054,0.182-0.015,0.259,0.049l-0.002-0.001
		c0.088,0.009,0.192,0.091,0.25-0.05c-0.397-0.273-0.678-0.651-0.939-1.046c-0.101-0.216-0.203-0.431-0.306-0.647
		c-0.056-0.147-0.159-0.278-0.147-0.447c-0.061-0.076,0.009-0.176-0.048-0.252h0.001c-0.009-0.165,0.002-0.332-0.049-0.493
		c-0.046-0.1-0.046-0.202,0-0.303c0-0.029,0.001-0.058,0.001-0.086c0.08-0.502,0.168-1.001,0.417-1.455
		c0.039-0.071,0.042-0.187,0.168-0.182c0.013,0.09,0.079,0.14,0.144,0.188c0.12,0.009,0.105,0.131,0.162,0.193
		c0.031,0.036,0.063,0.073,0.096,0.109c0.168,0.194,0.344,0.383,0.55,0.541c0.078,0.109,0.176,0.197,0.293,0.264
		c0.1,0.118,0.206,0.226,0.351,0.288c0.319,0.292,0.673,0.535,1.043,0.755C207.369,376.465,207.573,376.572,207.786,376.664z"/>
	<text transform="matrix(1 0 0 1 333.6436 384)" display="inline" font-family="'JihoSoft-Light'" font-size="12">GOOGLE</text>
	<g display="inline">
		<path fill-rule="evenodd" clip-rule="evenodd" fill="#4185F6" d="M316.168,383.765c0.361-0.403,0.684-0.832,0.896-1.335
			c0.122-0.287,0.125-0.285-0.18-0.285c-1.203,0-2.406-0.003-3.609,0.003c-0.127,0-0.174-0.024-0.172-0.164
			c0.008-0.854,0.008-1.709,0-2.564c-0.002-0.141,0.047-0.163,0.172-0.163c2.215,0.004,4.432,0.003,6.646,0.003
			c0.237,0,0.243-0.001,0.278,0.232c0.359,2.369-0.274,4.434-1.902,6.194c-0.034,0.036-0.075,0.067-0.112,0.101
			c-0.082,0.002-0.135-0.047-0.188-0.1c-0.572-0.578-1.152-1.147-1.724-1.726C316.221,383.906,316.152,383.858,316.168,383.765z"/>
		<path fill-rule="evenodd" clip-rule="evenodd" fill="#34A951" d="M316.168,383.765c0.672,0.674,1.344,1.348,2.018,2.021
			c-0.457,0.489-0.993,0.876-1.574,1.202c-2.736,1.532-6.188,1.1-8.451-1.061c-0.049-0.046-0.092-0.098-0.137-0.147
			c-0.031-0.083,0.02-0.138,0.071-0.191c0.583-0.591,1.177-1.173,1.761-1.762c0.053-0.053,0.106-0.106,0.191-0.065
			c0.387,0.355,0.799,0.677,1.287,0.877c1.723,0.704,3.293,0.448,4.705-0.768C316.081,383.834,316.125,383.801,316.168,383.765z"/>
		<path fill-rule="evenodd" clip-rule="evenodd" fill="#EA4134" d="M308.021,375.626c0.426-0.464,0.93-0.83,1.469-1.146
			c2.74-1.608,6.273-1.194,8.569,0.996c0.107,0.102,0.124,0.158,0.007,0.271c-0.606,0.594-1.204,1.197-1.803,1.799
			c-0.068,0.069-0.108,0.096-0.199,0.015c-1.776-1.592-4.188-1.578-5.952,0.028c-0.02,0.019-0.044,0.034-0.065,0.05
			c-0.085,0.039-0.139-0.013-0.191-0.065c-0.589-0.584-1.173-1.172-1.76-1.758C308.043,375.765,307.996,375.71,308.021,375.626z"/>
		<path fill-rule="evenodd" clip-rule="evenodd" fill="#FABD04" d="M308.021,375.626c0.672,0.675,1.334,1.359,2.025,2.014
			c-0.402,0.438-0.752,0.912-0.955,1.475c-0.6,1.662-0.32,3.166,0.834,4.506c0.041,0.046,0.08,0.093,0.121,0.141
			c-0.676,0.673-1.35,1.346-2.023,2.019c-0.578-0.547-1.023-1.191-1.375-1.9c-1.33-2.695-0.832-5.963,1.236-8.129
			C307.928,375.707,307.976,375.668,308.021,375.626z"/>
	</g>
	<text transform="matrix(1 0 0 1 112.333 473.0977)" display="inline" font-family="'JihoSoft-Light'" font-size="15">Usuario</text>
	<text transform="matrix(1 0 0 1 112.333 553.0977)" display="inline" font-family="'JihoSoft-Light'" font-size="15">Contraseña</text>
	<path display="inline" fill="#16212B" d="M105.583,466.261c-0.04,0.003-0.078,0.005-0.116,0.008
		c0.593-0.795,0.951-1.802,0.951-2.899c0-2.547-1.918-4.619-4.276-4.619c-2.357,0-4.276,2.072-4.276,4.619
		c0,1.072,0.342,2.058,0.912,2.843c0.005-0.004,0.008,0.001,0.01,0.007c-2.379,1.445-4.169,4.563-4.169,7.671
		c0,0.014,0.014,1.271,0.014,1.353V476h15.077l0.001-0.81c0-0.083,0-1.288,0-1.302C109.71,470.833,107.969,467.689,105.583,466.261z
		 M102.141,460.078c1.681,0,3.047,1.478,3.047,3.291c0,1.816-1.367,3.293-3.047,3.293c-1.68,0-3.046-1.477-3.046-3.293
		C99.095,461.556,100.461,460.078,102.141,460.078z M104.429,467.266v0.002l-0.003,0.002
		C104.426,467.268,104.427,467.268,104.429,467.266L104.429,467.266z M99.777,467.188c-0.053-0.039-0.104-0.083-0.156-0.125
		l0.22,0.094C99.82,467.166,99.799,467.178,99.777,467.188z M108.112,474.79H95.841c0,0,0-0.773,0-0.78
		c0-2.882,1.613-5.759,3.928-6.798c0.679,0.491,1.495,0.777,2.372,0.777c0.835,0,1.611-0.264,2.27-0.712
		c2.349,1.07,3.701,3.675,3.701,6.521C108.112,473.805,108.112,474.79,108.112,474.79z"/>
	<g display="inline">
		<path fill="none" d="M103.422,541.246h-2.4c-1.227,0-2.225,0.998-2.225,2.225v2.401h6.732c0.04,0,0.078,0.004,0.117,0.005v-2.406
			C105.647,542.244,104.649,541.246,103.422,541.246z"/>
		<path fill="#16212B" d="M106.818,546.186v-2.715c0-1.872-1.523-3.396-3.396-3.396h-2.4c-1.873,0-3.396,1.523-3.396,3.396v2.658
			c-0.966,0.444-1.639,1.42-1.639,2.553v4.508c0,1.552,1.258,2.811,2.811,2.811h6.732c1.552,0,2.811-1.259,2.811-2.811v-4.508
			C108.34,547.595,107.722,546.653,106.818,546.186z M103.676,553.217h-3.025l0.526-2.154v-0.134
			c-0.322-0.276-0.526-0.687-0.526-1.145c0-0.835,0.677-1.513,1.513-1.513s1.512,0.678,1.512,1.513c0,0.458-0.204,0.868-0.526,1.145
			v0.134L103.676,553.217z M105.647,545.877c-0.039-0.001-0.078-0.005-0.117-0.005h-6.732v-2.401c0-1.227,0.998-2.225,2.225-2.225
			h2.4c1.227,0,2.225,0.998,2.225,2.225V545.877z"/>
	</g>
	<rect x="184.313" y="620.598" display="inline" fill="#16212B" width="107.455" height="30.402"/>
	<text transform="matrix(1 0 0 1 198.0381 641)" display="inline" fill="#FFFFFF" font-family="'JihoSoft-Black'" font-size="15">INGRESAR</text>
	<rect x="184.313" y="693.598" display="inline" fill="#DDDDDD" width="107.455" height="30.402"/>
	<text transform="matrix(1 0 0 1 192.9902 714)" display="inline" font-family="'JihoSoft-Black'" font-size="15">REGISTRAR</text>
	<text transform="matrix(1 0 0 1 74.1074 677)" display="inline" font-family="'JihoSoft-Black'" font-size="12">¿Olvidaste el usuario? | ¿Olvidaste la contraseña? </text>
</g>
<g id="Capa_6">
</g>
</svg>
